<svg xmlns="http://www.w3.org/2000/svg" xmlns:xlink="http://www.w3.org/1999/xlink" viewBox="0 0 972.03 859.51"><defs><style>.cls-1{fill:#2c4356;}.cls-2{fill:#d1d1d1;}.cls-3{fill:#040512;}.cls-4{fill:#ebebeb;}.cls-5{fill:#854036;}.cls-6{fill:#a05e4b;}.cls-7{fill:#383a3a;}.cls-8{fill:#fff;}.cls-9{fill:#2b2220;}.cls-10{fill:#84552c;}.cls-11{fill:#2e4530;}.cls-12{fill:#354f37;}.cls-13{fill:#3a573c;}.cls-14{fill:#416143;}.cls-15{fill:#466948;}.cls-16{fill:#e2c2a0;}.cls-17{fill:#262626;}.cls-18{fill:#2d2d2d;}.cls-19{fill:#213644;}.cls-20{fill:#101011;}.cls-21{fill:url(#radial-gradient);}.cls-22{fill:url(#radial-gradient-2);}.cls-23{fill:url(#radial-gradient-3);}.cls-24{fill:url(#radial-gradient-4);}.cls-25{fill:url(#radial-gradient-5);}.cls-26{fill:url(#radial-gradient-6);}.cls-27{fill:url(#radial-gradient-7);}</style><radialGradient id="radial-gradient" cx="534.35" cy="105.32" r="47.1" gradientUnits="userSpaceOnUse"><stop offset="0" stop-color="#fff"/><stop offset="0.06" stop-color="#e6e6e6"/><stop offset="0.21" stop-color="#aaa"/><stop offset="0.35" stop-color="#767676"/><stop offset="0.5" stop-color="#4c4c4c"/><stop offset="0.64" stop-color="#2b2b2b"/><stop offset="0.77" stop-color="#131313"/><stop offset="0.89" stop-color="#050505"/><stop offset="1"/></radialGradient><radialGradient id="radial-gradient-2" cx="647.15" cy="104.58" r="41.71" xlink:href="#radial-gradient"/><radialGradient id="radial-gradient-3" cx="356.7" cy="119.7" r="40.04" xlink:href="#radial-gradient"/><radialGradient id="radial-gradient-4" cx="435.97" cy="121.2" r="29.52" xlink:href="#radial-gradient"/><radialGradient id="radial-gradient-5" cx="276.19" cy="106.18" r="31.71" xlink:href="#radial-gradient"/><radialGradient id="radial-gradient-6" cx="594.07" cy="121.47" r="17.49" xlink:href="#radial-gradient"/><radialGradient id="radial-gradient-7" cx="599.21" cy="88.96" r="4.79" xlink:href="#radial-gradient"/></defs><g id="Layer_2" data-name="Layer 2"><g id="Object"><path class="cls-1" d="M310.62,702.47q-16.22-.75-32.42-1.08c3,6.46,6.76,13,9,17.9,5.32,11.81,10.92,23.51,17.13,34.9,12,22,26.26,43,44.39,60.7,7.41,7.24,16.39,14.27,26.9,14.44,11.68.18,21.42-8,31.61-13.56,31.12-16.92,69.44-9.67,105-11.3,18.62-.86,37.11-4.28,55.75-4,15.77.27,31.33,3.23,47,5.29,26.39,3.48,53.06,4.41,79.68,5.35,7.63.26,15.82.39,22.19-3.69,4.27-2.73,7.17-7,9.84-11.24A300.68,300.68,0,0,0,765,705.72C614,707.41,476.18,710.14,310.62,702.47Z"/><path class="cls-2" d="M377.41,286.54c1.72,2.65,5.18,3.46,8.3,3.94,17,2.61,34.25,2.24,51.42,1.86l124.35-2.72c3.53-.08,7.4-.28,10-2.64s3.32-6.56,3.68-10.27c.31-3.21.6-6.6-.76-9.53-1.46-3.13-4.54-5.18-7.69-6.58-8.91-4-19-4.06-28.8-4.05-25.38,0-50.76.05-76.13.88s-52.36.73-77.2,5.84C375.36,265.17,372.16,278.41,377.41,286.54Z"/><path class="cls-3" d="M788,309.8c-11.14-10.13-29.57-10.88-43.74-12.32-5.44-.56-10.92-1-16.31-2-3.41-.61-8-1.46-10.36-4.32-3.87-4.8,1.5-9.59,6-10.92,4.77-1.41,10.05-.43,14.94-.62a28.82,28.82,0,0,0,27.77-26.8c.26-3.56-5.24-3.53-5.53,0a23.23,23.23,0,0,1-12.32,18.53c-8,4.17-16.67,1.1-25.08,2.83-5.81,1.2-11.73,5.31-13,11.41-1.21,5.8,2.73,10.71,7.66,13.14,6.56,3.24,14.55,3.54,21.7,4.3,9.31,1,18.7,1.7,27.81,4,6.36,1.57,21.81,5.46,20,14.84-1.63,8.38-14,11.74-21.05,12.89-18.35,3-38.31,1.06-56.69-.79-19.45-1.95-38.75-5.26-57.93-9-18.89-3.66-37.67-8.58-56.68-11.52-14.53-2.25-30.15-1.67-41.92,8.18-12,10-12.92,26.34-5,39.23,9.34,15.27,27.35,20.89,44.1,23.33,2.39.34,3.49-3.24,1-3.71-15.89-3-33.54-8.12-42.25-23-9.06-15.49-1.72-32.24,14.58-38.44,17.12-6.5,36.55-.38,53.61,3.43,18.36,4.1,36.74,8.2,55.27,11.46a469.58,469.58,0,0,0,54.55,6.68c15.84.91,34.54,2.7,49.58-3.53C790,332.38,799.28,320,788,309.8Z"/><path class="cls-3" d="M894.62,10.73C891.49,1.62,878.62.21,868.44.47,786.11.47,703.51-1,621.21,1.19q-9.9.26-19.71.45-30.15.48-60.27.77C482.89,2.72,426,1.89,367,1c-1.06.09-.51,0-2,.14-7.21-.15-13,.27-20.25.08C262.49-1,179.89.47,97.56.47,87.38.21,74.5,1.62,71.38,10.73c-1.45,4.23-.11,8.8,1.22,13.07,20.5,65.62,41,145.11,61.51,210.74,2.16,6.91,4.5,14.12,9.83,19.29,7.8,7.57,19.94,12.15,31.15,12.19,68.54.21,131.9.47,197.62.66.71,0,1.31,0,1.61,0q85.94.14,171.87-.25c81.64-.49,160.41-.18,244.72-.44,11.21,0,23.35-4.62,31.15-12.19,5.33-5.17,7.66-12.38,9.82-19.29,20.51-65.63,41-145.12,61.52-210.74C894.73,19.53,896.07,15,894.62,10.73Z"/><path class="cls-4" d="M861.74,27.66c-2.88-6.46-14.72-7.46-24.09-7.27-75.75,0-151.76-1-227.48.5q-9.1.2-18.14.33-27.74.33-55.45.54c-53.68.22-106-.36-160.28-1-1,.06-.47,0-1.84.1-6.63-.11-12,.19-18.63.05-75.72-1.53-151.73-.5-227.48-.5-9.37-.19-21.21.81-24.09,7.27-1.33,3-.1,6.25,1.12,9.27,18.87,46.57,24.92,103,43.79,149.53,2,4.91,4.14,10,9.05,13.69,7.17,5.37,18.34,8.62,28.65,8.65l194.65.47c.66,0,1.2,0,1.48,0q79.08.09,158.15-.18c75.11-.35,160.4-.13,238-.31,10.32,0,21.49-3.28,28.66-8.65,4.91-3.67,7.06-8.78,9.05-13.69,18.86-46.56,24.92-103,43.79-149.53C861.84,33.91,863.07,30.66,861.74,27.66Z"/><path class="cls-2" d="M130.24,222q1.94,6.36,3.87,12.56c2.16,6.91,4.5,14.12,9.83,19.29,7.8,7.57,19.94,12.15,31.15,12.19,68.54.21,131.9.47,197.62.66.71,0,1.31,0,1.61,0q85.94.14,171.87-.25c81.64-.49,160.41-.18,244.72-.44,11.21,0,23.35-4.62,31.15-12.19,5.33-5.17,7.66-12.38,9.82-19.29q2.24-7.12,4.46-14.47C601,224,365.61,217.55,130.24,222Z"/><path class="cls-2" d="M466.15,328.35,485,327.14c2.75-.17,5.92-.23,7.66,1.14a4.58,4.58,0,0,1,1.46,3.5c4.48,46.93,6.28,82.51,10.76,129.44.4,4.22,1.13,13.24-1.42,17.23-5.7,9-22.83,6.28-36.9,7.63-34,3.25-68,5.77-102,9-23.13,2.22-29.63,3.5-69.39,6.2-13.49.92-26.69,2.82-40.19,3.4-21.48.93-44.53,4.68-65.89,4.09-9.49-.27-19.31,4-24.62-1.11-3.47-3.36-4.66-13.48-5.29-17.65-2.43-16.18-2.64-24.14-5.08-40.32-1.38-9.23-1.89-18.52-2.81-27.79-1.9-19-2.74-38.07-.75-57.22C152,351,178.37,352.78,193,351.25c22.28-2.33,44.75-2.33,67-4.44,44-4.15,88-8.61,132.13-11.89C416.85,333.09,441.44,329.91,466.15,328.35Z"/><path class="cls-4" d="M266.53,478.1c8-2.48,16.62-3.16,25.09-3.81L371,468.13c1.35-.1,2.88-.16,3.83.6a3.46,3.46,0,0,1,1,2.74q.24,6.7.49,13.42-33.7,4.22-67.66,6c-11.08.6-24.36,2.26-35.43,3.17-7.24.59-3.87-2.07-5.55-4.65C267.07,488.57,266.21,478.19,266.53,478.1Z"/><path class="cls-4" d="M157.47,377.17a4.19,4.19,0,0,1,.33-2.87c.65-.94,1.94-1.11,3.07-1.19,9.71-.72,19.38-1.95,29.09-2.67a3.93,3.93,0,0,1,2.75.48c.92.7,1.08,2,1.16,3.19.22,3.11.49,6.76.71,9.87a4.8,4.8,0,0,1-.07,1.65c-.5,1.8-2.52,2.49-4.33,2.68-8.35.86-18.3,1.74-26.67,2.33C157.14,391.09,158,382.92,157.47,377.17Z"/><path class="cls-4" d="M197.13,384.36a3.58,3.58,0,0,0,.45,1.83c.69,1,2.16,1,3.38.91,4.57-.43,9.12-1.37,13.7-1.15a3,3,0,0,0,2.08-.39,2.63,2.63,0,0,0,.68-2,50.56,50.56,0,0,0-.39-7.06q-.33-3.09-.64-6.18a2.62,2.62,0,0,0-.19-.88c-.46-.92-1.74-1-2.77-.9-4.31.32-8.63.66-12.94.94a5.32,5.32,0,0,0-3.6,1.3c-1.17,1.24-.33,4.43-.23,6C196.82,379.34,197,381.85,197.13,384.36Z"/><path class="cls-4" d="M219.33,369.84a7,7,0,0,0-.24,3.53c.3,3,.61,5.95.91,8.93a3.18,3.18,0,0,0,.71,2c.77.74,2.07.66,3.18.51,4.61-.61,9.17-.51,13.76-1.25a3.65,3.65,0,0,0,.92-.23,2.23,2.23,0,0,0,1-1.07c.69-1.38.54-3.74.34-5.24-.4-3-.79-5.48-1.19-8.52a2,2,0,0,0-.63-1.45,2.31,2.31,0,0,0-1.36-.31,62.34,62.34,0,0,0-10.32.67C224.07,367.72,220.37,367.42,219.33,369.84Z"/><path class="cls-4" d="M242.64,380.39a3.54,3.54,0,0,0,.45,1.82c.69,1,2.16,1,3.39.92,4.56-.43,9.11-1.37,13.69-1.15a3,3,0,0,0,2.08-.39,2.66,2.66,0,0,0,.68-2,50.5,50.5,0,0,0-.39-7.05q-.33-3.09-.64-6.18a2.62,2.62,0,0,0-.19-.88c-.46-.92-1.74-1-2.77-.9-4.31.32-8.62.66-12.94.94a5.36,5.36,0,0,0-3.6,1.29c-1.17,1.25-.33,4.44-.23,6C242.33,375.37,242.48,377.88,242.64,380.39Z"/><path class="cls-4" d="M264.84,365.87a7,7,0,0,0-.24,3.52c.3,3,.61,6,.91,8.94a3.2,3.2,0,0,0,.71,2c.77.74,2.07.65,3.19.51,4.6-.61,9.16-.51,13.75-1.25a3.2,3.2,0,0,0,.92-.24,2.19,2.19,0,0,0,1-1.07c.69-1.38.54-3.73.34-5.23-.4-3-.79-5.49-1.19-8.52a2,2,0,0,0-.63-1.45,2.3,2.3,0,0,0-1.35-.32,63.56,63.56,0,0,0-10.33.68C269.58,363.75,265.88,363.44,264.84,365.87Z"/><path class="cls-4" d="M288.15,376.42a3.54,3.54,0,0,0,.45,1.82c.69,1,2.16,1,3.39.92,4.56-.43,9.11-1.37,13.69-1.15a3,3,0,0,0,2.08-.39,2.66,2.66,0,0,0,.68-2,50.41,50.41,0,0,0-.39-7.05c-.21-2.06-.43-4.12-.64-6.18a2.62,2.62,0,0,0-.19-.88c-.46-.92-1.74-1-2.77-.9-4.31.32-8.62.66-12.94.94a5.31,5.31,0,0,0-3.6,1.29c-1.17,1.24-.33,4.44-.23,6C287.84,371.4,288,373.91,288.15,376.42Z"/><path class="cls-4" d="M310.35,361.89a7,7,0,0,0-.24,3.53c.3,3,.61,6,.91,8.94a3.17,3.17,0,0,0,.71,2c.77.75,2.07.66,3.19.52,4.6-.61,9.17-.51,13.75-1.25a3.12,3.12,0,0,0,.92-.24,2.19,2.19,0,0,0,1-1.07c.69-1.38.54-3.74.34-5.23-.4-3-.79-5.49-1.19-8.52a2,2,0,0,0-.63-1.46,2.37,2.37,0,0,0-1.35-.31,61.39,61.39,0,0,0-10.33.68C315.1,359.78,311.39,359.47,310.35,361.89Z"/><path class="cls-4" d="M333.66,372.45a3.54,3.54,0,0,0,.45,1.82c.69,1,2.16,1,3.39.92,4.56-.44,9.11-1.37,13.69-1.15a3,3,0,0,0,2.08-.4,2.62,2.62,0,0,0,.68-2,50.41,50.41,0,0,0-.39-7.05c-.21-2.06-.43-4.12-.64-6.18a2.62,2.62,0,0,0-.19-.88c-.45-.93-1.74-1-2.77-.9-4.31.32-8.62.66-12.94.94a5.31,5.31,0,0,0-3.6,1.29c-1.17,1.24-.33,4.44-.23,6C333.35,367.43,333.5,369.94,333.66,372.45Z"/><path class="cls-4" d="M355.86,357.92a7,7,0,0,0-.24,3.53q.45,4.47.92,8.93a3.11,3.11,0,0,0,.7,2c.77.75,2.07.66,3.19.51,4.6-.61,9.17-.51,13.75-1.24a3.12,3.12,0,0,0,.92-.24,2.19,2.19,0,0,0,1-1.07c.69-1.38.54-3.74.34-5.23-.4-3-.79-5.49-1.19-8.52a2,2,0,0,0-.63-1.46,2.37,2.37,0,0,0-1.35-.31,61.39,61.39,0,0,0-10.33.68C360.61,355.81,356.9,355.5,355.86,357.92Z"/><path class="cls-4" d="M379.17,368.48a3.54,3.54,0,0,0,.45,1.82c.69,1,2.16,1,3.39.92,4.56-.44,9.11-1.37,13.69-1.15a3,3,0,0,0,2.08-.4,2.63,2.63,0,0,0,.68-2,50.33,50.33,0,0,0-.39-7.05q-.31-3.09-.64-6.18a2.62,2.62,0,0,0-.19-.88c-.45-.93-1.74-1-2.77-.91-4.31.32-8.62.67-12.94.95a5.27,5.27,0,0,0-3.59,1.29c-1.18,1.24-.34,4.43-.24,6C378.86,363.46,379,366,379.17,368.48Z"/><path class="cls-4" d="M401.37,354a7,7,0,0,0-.24,3.53c.31,3,.61,6,.92,8.93a3.11,3.11,0,0,0,.7,2c.77.75,2.07.66,3.19.51,4.6-.61,9.17-.51,13.75-1.24a3.12,3.12,0,0,0,.92-.24,2.23,2.23,0,0,0,1-1.07c.69-1.38.54-3.74.34-5.23-.4-3-.79-5.49-1.19-8.52a2,2,0,0,0-.63-1.46,2.37,2.37,0,0,0-1.35-.31,62.38,62.38,0,0,0-10.33.67C406.12,351.84,402.41,351.53,401.37,354Z"/><path class="cls-4" d="M424.68,364.51a3.54,3.54,0,0,0,.45,1.82c.69,1,2.16,1,3.39.92,4.56-.44,9.11-1.38,13.69-1.16a2.9,2.9,0,0,0,2.08-.39,2.63,2.63,0,0,0,.68-2,50.33,50.33,0,0,0-.39-7.05q-.31-3.09-.64-6.18a2.56,2.56,0,0,0-.19-.88c-.45-.93-1.74-1-2.77-.91-4.31.32-8.62.66-12.94,1a5.27,5.27,0,0,0-3.59,1.29c-1.18,1.24-.34,4.43-.24,6C424.37,359.49,424.52,362,424.68,364.51Z"/><path class="cls-4" d="M446.88,350a7.14,7.14,0,0,0-.24,3.53c.31,3,.61,5.95.92,8.93a3.11,3.11,0,0,0,.7,2c.77.75,2.07.66,3.19.51,4.6-.61,9.17-.51,13.75-1.24a3.46,3.46,0,0,0,.92-.24,2.23,2.23,0,0,0,1-1.07c.69-1.38.54-3.74.34-5.24-.4-3-.79-5.48-1.19-8.52a2,2,0,0,0-.62-1.45,2.4,2.4,0,0,0-1.36-.31,62.38,62.38,0,0,0-10.33.67C451.63,347.87,447.92,347.56,446.88,350Z"/><path class="cls-4" d="M470.19,360.54a3.56,3.56,0,0,0,.45,1.82c.69,1,2.16,1,3.39.92,4.56-.44,9.11-1.38,13.69-1.16a2.9,2.9,0,0,0,2.08-.39,2.63,2.63,0,0,0,.68-2,50.56,50.56,0,0,0-.39-7.06l-.63-6.18a3,3,0,0,0-.2-.88c-.45-.92-1.73-1-2.77-.9-4.31.32-8.62.66-12.94.94A5.33,5.33,0,0,0,470,347c-1.18,1.24-.34,4.43-.24,6C469.88,355.52,470,358,470.19,360.54Z"/><path class="cls-4" d="M161.05,421.67a4.1,4.1,0,0,1,.34-2.86c.66-.95,1.94-1.11,3.07-1.19,9.72-.68,19.38-1.89,29.1-2.57a3.88,3.88,0,0,1,2.75.49c.92.7,1.07,2,1.15,3.19.21,3.12.47,6.76.68,9.87a5.05,5.05,0,0,1-.07,1.65c-.51,1.8-2.53,2.49-4.35,2.67-8.35.83-18.3,1.68-26.67,2.24C160.67,435.59,161.56,427.42,161.05,421.67Z"/><path class="cls-4" d="M200.68,429a3.66,3.66,0,0,0,.44,1.82c.7,1,2.16,1,3.39.93,4.57-.42,9.12-1.34,13.7-1.11a2.9,2.9,0,0,0,2.08-.39,2.62,2.62,0,0,0,.68-2,50.39,50.39,0,0,0-.36-7c-.21-2.06-.41-4.12-.62-6.18a2.62,2.62,0,0,0-.19-.88c-.45-.93-1.73-1-2.76-.92-4.32.31-8.63.64-12.95.9a5.31,5.31,0,0,0-3.6,1.29c-1.18,1.23-.34,4.43-.25,6C200.39,424,200.53,426.48,200.68,429Z"/><path class="cls-4" d="M222.93,414.54a7,7,0,0,0-.25,3.53q.44,4.47.89,8.93a3.1,3.1,0,0,0,.7,2c.76.75,2.06.66,3.18.52,4.61-.6,9.17-.48,13.76-1.2a3.29,3.29,0,0,0,.92-.24,2.21,2.21,0,0,0,1-1.06c.69-1.38.55-3.74.36-5.24-.39-3-.77-5.49-1.16-8.52a2,2,0,0,0-.63-1.46,2.35,2.35,0,0,0-1.35-.31,62.18,62.18,0,0,0-10.33.64C227.68,412.44,224,412.12,222.93,414.54Z"/><path class="cls-4" d="M246.2,425.17a3.58,3.58,0,0,0,.45,1.83c.69,1,2.16,1,3.38.93,4.57-.42,9.12-1.35,13.7-1.11a2.94,2.94,0,0,0,2.09-.39,2.62,2.62,0,0,0,.68-2,52,52,0,0,0-.37-7c-.2-2.06-.41-4.12-.61-6.18a2.46,2.46,0,0,0-.2-.89c-.45-.92-1.73-1-2.76-.91-4.31.31-8.63.64-12.94.9a5.35,5.35,0,0,0-3.6,1.28c-1.18,1.24-.35,4.44-.26,6Z"/><path class="cls-4" d="M268.46,410.72a7.14,7.14,0,0,0-.26,3.53c.3,3,.59,5.95.89,8.93a3.11,3.11,0,0,0,.7,2c.76.75,2.07.67,3.18.53,4.61-.6,9.17-.48,13.76-1.2a3.2,3.2,0,0,0,.92-.24,2.26,2.26,0,0,0,1-1.07c.69-1.37.54-3.73.35-5.23-.39-3-.77-5.49-1.16-8.52a2,2,0,0,0-.62-1.46,2.47,2.47,0,0,0-1.36-.32,62.31,62.31,0,0,0-10.33.65C273.21,408.62,269.5,408.3,268.46,410.72Z"/><path class="cls-4" d="M291.73,421.35a3.44,3.44,0,0,0,.44,1.82c.69,1,2.16,1.05,3.39.93,4.56-.42,9.11-1.34,13.69-1.1a3,3,0,0,0,2.09-.39,2.63,2.63,0,0,0,.68-2,50.31,50.31,0,0,0-.37-7.05c-.2-2.07-.41-4.13-.61-6.19a2.62,2.62,0,0,0-.19-.88c-.45-.92-1.73-1-2.77-.91-4.31.31-8.62.63-12.94.9a5.35,5.35,0,0,0-3.6,1.28c-1.18,1.24-.35,4.44-.25,6Q291.5,417.59,291.73,421.35Z"/><path class="cls-4" d="M314,406.9a7,7,0,0,0-.25,3.53c.29,3,.59,5.95.88,8.93a3.11,3.11,0,0,0,.7,2c.77.75,2.07.67,3.18.52,4.61-.59,9.18-.48,13.76-1.2a3.45,3.45,0,0,0,.92-.23,2.26,2.26,0,0,0,1-1.07c.69-1.38.55-3.73.36-5.23-.39-3-.78-5.49-1.17-8.52a2,2,0,0,0-.62-1.46,2.47,2.47,0,0,0-1.36-.32,62.3,62.3,0,0,0-10.33.64C318.73,404.8,315,404.48,314,406.9Z"/><path class="cls-4" d="M337.25,417.53a3.63,3.63,0,0,0,.44,1.82c.7,1,2.16,1,3.39.93,4.57-.42,9.12-1.34,13.7-1.11a3,3,0,0,0,2.08-.38,2.63,2.63,0,0,0,.68-2,50.53,50.53,0,0,0-.36-7.06c-.21-2.06-.41-4.12-.62-6.18a2.62,2.62,0,0,0-.19-.88c-.45-.92-1.73-1-2.76-.91-4.32.3-8.63.63-12.95.9a5.35,5.35,0,0,0-3.6,1.28c-1.18,1.24-.34,4.43-.25,6C337,412.51,337.1,415,337.25,417.53Z"/><path class="cls-4" d="M359.5,403.08a7,7,0,0,0-.25,3.52q.44,4.47.89,8.94a3.06,3.06,0,0,0,.7,2c.76.75,2.06.67,3.18.52,4.6-.59,9.17-.48,13.76-1.2a3.65,3.65,0,0,0,.92-.23,2.23,2.23,0,0,0,1-1.07c.69-1.38.55-3.74.36-5.23-.39-3-.77-5.49-1.16-8.53a2,2,0,0,0-.63-1.45,2.28,2.28,0,0,0-1.35-.32,62.18,62.18,0,0,0-10.33.64C364.25,401,360.55,400.66,359.5,403.08Z"/><path class="cls-4" d="M382.77,413.71a3.54,3.54,0,0,0,.45,1.82c.69,1,2.16,1,3.38.93,4.57-.42,9.12-1.34,13.7-1.11a3,3,0,0,0,2.09-.38,2.63,2.63,0,0,0,.68-2,52.11,52.11,0,0,0-.37-7.06c-.2-2.06-.41-4.12-.61-6.18a2.4,2.4,0,0,0-.2-.88c-.45-.93-1.73-1-2.76-.91-4.31.3-8.63.63-12.94.9a5.26,5.26,0,0,0-3.6,1.28c-1.18,1.24-.35,4.43-.26,6Z"/><path class="cls-4" d="M405,399.25a7.15,7.15,0,0,0-.26,3.53c.3,3,.59,6,.89,8.94a3.13,3.13,0,0,0,.7,2c.76.75,2.07.66,3.18.52,4.61-.59,9.17-.48,13.76-1.2a3.65,3.65,0,0,0,.92-.23,2.3,2.3,0,0,0,1-1.07c.69-1.38.54-3.74.35-5.23-.39-3-.77-5.49-1.16-8.53a2,2,0,0,0-.62-1.45,2.31,2.31,0,0,0-1.36-.32,62.24,62.24,0,0,0-10.33.64C409.78,397.16,406.07,396.84,405,399.25Z"/><path class="cls-4" d="M428.3,409.89a3.46,3.46,0,0,0,.44,1.82c.69,1,2.16,1,3.39.93,4.56-.42,9.11-1.34,13.69-1.11a2.93,2.93,0,0,0,2.09-.39,2.62,2.62,0,0,0,.68-2,50.47,50.47,0,0,0-.37-7.05c-.2-2.06-.41-4.12-.61-6.18a2.62,2.62,0,0,0-.19-.88c-.45-.93-1.73-1-2.77-.92-4.31.31-8.62.64-12.94.91a5.26,5.26,0,0,0-3.6,1.28c-1.18,1.23-.35,4.43-.25,6Q428.07,406.13,428.3,409.89Z"/><path class="cls-4" d="M450.55,395.43a7,7,0,0,0-.25,3.53c.29,3,.59,6,.88,8.94a3.13,3.13,0,0,0,.7,2c.77.75,2.07.66,3.18.52,4.61-.6,9.18-.48,13.76-1.2a3.12,3.12,0,0,0,.92-.24,2.24,2.24,0,0,0,1-1.06c.69-1.38.55-3.74.36-5.24-.39-3-.78-5.49-1.17-8.52a2.06,2.06,0,0,0-.62-1.46,2.38,2.38,0,0,0-1.36-.31,62.3,62.3,0,0,0-10.33.64C455.3,393.33,451.59,393,450.55,395.43Z"/><path class="cls-4" d="M473.82,406.06a3.67,3.67,0,0,0,.44,1.83c.69,1,2.16,1,3.39.93,4.57-.42,9.12-1.35,13.7-1.11a2.9,2.9,0,0,0,2.08-.39,2.62,2.62,0,0,0,.68-2,50.39,50.39,0,0,0-.36-7.05c-.21-2.06-.41-4.12-.62-6.18a2.62,2.62,0,0,0-.19-.88c-.45-.93-1.73-1-2.76-.92-4.32.31-8.63.64-12.95.9a5.31,5.31,0,0,0-3.6,1.29c-1.18,1.23-.34,4.43-.25,6C473.53,401,473.67,403.55,473.82,406.06Z"/><path class="cls-4" d="M491.47,371.52a4.12,4.12,0,0,0-.82-2.77c-.8-.82-2.1-.77-3.22-.65-9.7.95-19.43,1.39-29.12,2.34a4,4,0,0,0-2.64.94c-.78.85-.71,2.18-.59,3.34.31,3.11.67,6.75,1,9.85a4.7,4.7,0,0,0,.35,1.62c.8,1.68,2.91,2,4.73,1.89,8.37-.58,18.32-1.41,26.67-2.26C494.18,385.18,491.93,377.28,491.47,371.52Z"/><path class="cls-4" d="M453.63,385.38a3.62,3.62,0,0,1-.13,1.88c-.52,1.11-2,1.39-3.19,1.48-4.57.35-9.21.21-13.68,1.2a2.92,2.92,0,0,1-2.12,0,2.6,2.6,0,0,1-1-1.83,51.36,51.36,0,0,1-.82-7c-.14-2.07-.29-4.13-.43-6.2a2.71,2.71,0,0,1,0-.9c.29-1,1.54-1.26,2.57-1.36,4.31-.42,8.61-.82,12.91-1.28a5.28,5.28,0,0,1,3.77.66c1.37,1,1.08,4.31,1.26,5.9Q453.21,381.64,453.63,385.38Z"/><path class="cls-4" d="M429.27,374.87a7.22,7.22,0,0,1,.84,3.43c.21,3,.41,6,.62,9a3.1,3.1,0,0,1-.35,2.1c-.63.87-1.93,1-3.05,1.05-4.64.18-9.12,1.06-13.77,1.12a3,3,0,0,1-.94-.08,2.18,2.18,0,0,1-1.16-.88c-.91-1.24-1.17-3.59-1.23-5.1-.13-3.06-.16-5.54-.29-8.6a2,2,0,0,1,.37-1.54,2.46,2.46,0,0,1,1.29-.54,62.91,62.91,0,0,1,10.29-1.1C424.23,373.6,427.83,372.66,429.27,374.87Z"/><path class="cls-4" d="M408.11,389.25a3.58,3.58,0,0,1-.13,1.87c-.51,1.12-2,1.39-3.19,1.49-4.57.35-9.21.2-13.68,1.2a3,3,0,0,1-2.12,0,2.6,2.6,0,0,1-1-1.83,51.36,51.36,0,0,1-.82-7c-.14-2.07-.29-4.14-.43-6.2a2.71,2.71,0,0,1,0-.9c.29-1,1.54-1.26,2.57-1.37,4.31-.42,8.61-.82,12.91-1.28a5.33,5.33,0,0,1,3.77.66c1.37,1,1.08,4.31,1.26,5.9C407.56,384.25,407.83,386.75,408.11,389.25Z"/><path class="cls-4" d="M383.75,378.73a7.15,7.15,0,0,1,.84,3.44c.21,3,.41,6,.62,9a3.12,3.12,0,0,1-.35,2.1c-.63.86-1.92,1-3.05,1-4.64.19-9.12,1.07-13.77,1.13a3.7,3.7,0,0,1-.94-.08,2.27,2.27,0,0,1-1.16-.88c-.91-1.25-1.17-3.6-1.23-5.1-.13-3.06-.16-5.54-.28-8.6a2,2,0,0,1,.36-1.54,2.39,2.39,0,0,1,1.29-.54,61.83,61.83,0,0,1,10.29-1.1C378.71,377.46,382.31,376.52,383.75,378.73Z"/><path class="cls-4" d="M362.59,393.12a3.58,3.58,0,0,1-.13,1.87c-.51,1.11-2,1.39-3.19,1.48-4.57.35-9.21.21-13.68,1.21a3,3,0,0,1-2.12,0,2.62,2.62,0,0,1-1-1.83,51.69,51.69,0,0,1-.82-7c-.14-2.06-.29-4.13-.43-6.2a2.71,2.71,0,0,1,0-.9c.29-1,1.54-1.26,2.57-1.36,4.31-.42,8.61-.82,12.91-1.28a5.28,5.28,0,0,1,3.77.66c1.37,1,1.08,4.31,1.26,5.9C362,388.12,362.31,390.62,362.59,393.12Z"/><path class="cls-4" d="M338.23,382.6a7.11,7.11,0,0,1,.84,3.43q.31,4.49.62,9a3.1,3.1,0,0,1-.35,2.1c-.63.87-1.92,1-3,1.05-4.64.19-9.12,1.06-13.76,1.12a3.33,3.33,0,0,1-.95-.07,2.29,2.29,0,0,1-1.16-.89c-.91-1.24-1.17-3.59-1.23-5.1-.13-3.05-.16-5.54-.28-8.6a2,2,0,0,1,.36-1.54,2.37,2.37,0,0,1,1.29-.53,61.78,61.78,0,0,1,10.29-1.11C333.19,381.33,336.79,380.39,338.23,382.6Z"/><path class="cls-4" d="M317.07,397a3.58,3.58,0,0,1-.13,1.87c-.51,1.12-2,1.39-3.18,1.49-4.58.35-9.22.2-13.69,1.2a2.92,2.92,0,0,1-2.12,0,2.64,2.64,0,0,1-1-1.83,51.36,51.36,0,0,1-.82-7c-.14-2.07-.29-4.13-.43-6.2a2.71,2.71,0,0,1,0-.9c.29-1,1.54-1.26,2.57-1.36,4.31-.43,8.61-.83,12.91-1.29a5.39,5.39,0,0,1,3.77.66c1.37,1,1.08,4.32,1.26,5.9C316.52,392,316.79,394.48,317.07,397Z"/><path class="cls-4" d="M292.71,386.46a7,7,0,0,1,.84,3.44c.21,3,.42,6,.62,9a3.11,3.11,0,0,1-.35,2.1c-.63.86-1.92,1-3.05,1-4.64.19-9.12,1.07-13.76,1.13a3.33,3.33,0,0,1-.95-.08,2.27,2.27,0,0,1-1.16-.88c-.91-1.25-1.17-3.59-1.23-5.1-.12-3.06-.16-5.54-.28-8.6a2,2,0,0,1,.36-1.54,2.39,2.39,0,0,1,1.29-.54,61.83,61.83,0,0,1,10.29-1.1C287.67,385.19,291.27,384.26,292.71,386.46Z"/><path class="cls-4" d="M271.55,400.85a3.58,3.58,0,0,1-.13,1.87c-.51,1.11-2,1.39-3.18,1.48-4.58.35-9.22.21-13.69,1.21a3,3,0,0,1-2.12,0,2.66,2.66,0,0,1-1-1.83,51.69,51.69,0,0,1-.82-7c-.14-2.06-.29-4.13-.43-6.19a2.77,2.77,0,0,1,0-.91c.29-1,1.54-1.26,2.57-1.36,4.31-.42,8.61-.82,12.91-1.28a5.33,5.33,0,0,1,3.77.66c1.37,1,1.08,4.31,1.26,5.9C271,395.85,271.27,398.35,271.55,400.85Z"/><path class="cls-4" d="M247.19,390.33a7,7,0,0,1,.84,3.44c.21,3,.42,6,.62,9a3.1,3.1,0,0,1-.35,2.1c-.63.87-1.92,1-3.05,1.05-4.64.19-9.12,1.07-13.76,1.12a3.33,3.33,0,0,1-1-.07,2.29,2.29,0,0,1-1.16-.89c-.91-1.24-1.17-3.59-1.23-5.1-.12-3.05-.16-5.54-.28-8.59a2,2,0,0,1,.36-1.54,2.31,2.31,0,0,1,1.29-.54,61.83,61.83,0,0,1,10.29-1.1C242.15,389.06,245.75,388.12,247.19,390.33Z"/><path class="cls-4" d="M226,404.71a3.58,3.58,0,0,1-.13,1.87c-.51,1.12-2,1.39-3.18,1.49-4.58.35-9.22.2-13.69,1.2a2.92,2.92,0,0,1-2.12,0,2.59,2.59,0,0,1-1-1.83,49.85,49.85,0,0,1-.83-7c-.14-2.07-.29-4.13-.43-6.2a2.71,2.71,0,0,1,0-.9c.29-1,1.54-1.26,2.57-1.36,4.31-.42,8.61-.82,12.91-1.28a5.33,5.33,0,0,1,3.77.65c1.37,1,1.09,4.32,1.26,5.9C225.48,399.71,225.75,402.21,226,404.71Z"/><path class="cls-4" d="M201.67,394.19a7.06,7.06,0,0,1,.84,3.44l.63,9a3.1,3.1,0,0,1-.36,2.1c-.63.87-1.92,1-3.05,1.05-4.64.18-9.12,1.06-13.76,1.12a3.33,3.33,0,0,1-.95-.08,2.27,2.27,0,0,1-1.16-.88c-.91-1.24-1.17-3.59-1.23-5.1-.12-3.06-.16-5.54-.28-8.6a2,2,0,0,1,.36-1.54,2.39,2.39,0,0,1,1.29-.54,62.91,62.91,0,0,1,10.29-1.1C196.63,392.92,200.23,392,201.67,394.19Z"/><path class="cls-4" d="M180.51,408.58a3.58,3.58,0,0,1-.13,1.87c-.51,1.11-2,1.39-3.18,1.48-4.58.36-9.22.21-13.69,1.21a3,3,0,0,1-2.12,0,2.59,2.59,0,0,1-1-1.83,50.17,50.17,0,0,1-.83-7c-.14-2.06-.29-4.13-.43-6.19a2.71,2.71,0,0,1,0-.9c.29-1,1.54-1.27,2.57-1.37,4.31-.42,8.61-.82,12.91-1.28a5.33,5.33,0,0,1,3.77.66c1.37,1,1.09,4.31,1.26,5.9C180,403.58,180.23,406.08,180.51,408.58Z"/><path class="cls-4" d="M163.59,454.83a2.11,2.11,0,0,0,.69,1.8c1.23,1,4,.88,6.35.67,8.7-.78,17.4-2.07,26.07-2.2a10.36,10.36,0,0,0,4-.55,2.43,2.43,0,0,0,1.45-2,26.55,26.55,0,0,0-.14-7.07l-.67-6.18a1.43,1.43,0,0,0-.3-.87c-.78-.9-3.2-.86-5.17-.7-8.2.65-16.41,1.32-24.62,1.93-2.37.17-5.1.53-6.93,1.57-2.33,1.34-1,4.49-1,6.09Z"/><path class="cls-4" d="M204.22,438.77a7,7,0,0,0-.25,3.53c.3,3,.59,6,.89,8.93a3.16,3.16,0,0,0,.7,2c.76.75,2.06.66,3.18.52,4.61-.6,9.17-.48,13.76-1.2a3.29,3.29,0,0,0,.92-.24,2.19,2.19,0,0,0,1-1.07c.7-1.37.55-3.73.36-5.23-.39-3-.77-5.49-1.16-8.52a2,2,0,0,0-.62-1.46,2.38,2.38,0,0,0-1.36-.31,62.18,62.18,0,0,0-10.33.64C209,436.67,205.27,436.35,204.22,438.77Z"/><path class="cls-4" d="M227.5,449.4a3.49,3.49,0,0,0,.44,1.83c.69,1,2.16,1,3.39.93,4.56-.43,9.11-1.35,13.69-1.11a3,3,0,0,0,2.09-.39,2.62,2.62,0,0,0,.68-2,50.39,50.39,0,0,0-.37-7.05c-.2-2.06-.41-4.12-.61-6.19a2.67,2.67,0,0,0-.19-.88c-.45-.92-1.74-1-2.77-.91-4.31.31-8.62.64-12.94.9a5.35,5.35,0,0,0-3.6,1.28c-1.18,1.24-.35,4.44-.26,6Z"/><path class="cls-4" d="M249.75,435a7.14,7.14,0,0,0-.26,3.53c.3,3,.59,5.95.89,8.93a3.11,3.11,0,0,0,.7,2c.76.75,2.07.67,3.18.52,4.61-.59,9.17-.48,13.76-1.19a3.46,3.46,0,0,0,.92-.24,2.26,2.26,0,0,0,1-1.07c.69-1.37.55-3.73.35-5.23-.39-3-.77-5.49-1.16-8.52a2,2,0,0,0-.62-1.46,2.47,2.47,0,0,0-1.36-.32,62.3,62.3,0,0,0-10.33.64C254.5,432.85,250.79,432.53,249.75,435Z"/><path class="cls-4" d="M273,445.58a3.53,3.53,0,0,0,.44,1.82c.69,1,2.16,1.05,3.39.93,4.57-.42,9.12-1.34,13.7-1.1a3,3,0,0,0,2.08-.39,2.63,2.63,0,0,0,.68-2,49.06,49.06,0,0,0-.37-7.06q-.3-3.09-.61-6.18a2.62,2.62,0,0,0-.19-.88c-.45-.92-1.73-1-2.76-.91-4.32.31-8.63.63-12.95.9a5.35,5.35,0,0,0-3.6,1.28c-1.18,1.24-.35,4.43-.25,6Q272.79,441.82,273,445.58Z"/><path class="cls-4" d="M295.27,431.13a7,7,0,0,0-.25,3.52c.29,3,.59,6,.88,8.94a3.11,3.11,0,0,0,.7,2c.77.75,2.07.67,3.19.52,4.6-.59,9.17-.48,13.76-1.2a3.47,3.47,0,0,0,.91-.23,2.25,2.25,0,0,0,1-1.07c.69-1.38.55-3.73.36-5.23-.39-3-.78-5.49-1.17-8.53a1.94,1.94,0,0,0-.62-1.45,2.3,2.3,0,0,0-1.35-.32,62.35,62.35,0,0,0-10.34.64C300,429,296.32,428.71,295.27,431.13Z"/><path class="cls-4" d="M318.54,441.76a3.54,3.54,0,0,0,.45,1.82c.69,1,2.15,1,3.38.93,4.57-.42,9.12-1.34,13.7-1.11a3,3,0,0,0,2.08-.38,2.59,2.59,0,0,0,.68-2,50.53,50.53,0,0,0-.36-7.06q-.32-3.09-.61-6.18a2.63,2.63,0,0,0-.2-.88c-.45-.92-1.73-1-2.76-.91-4.32.3-8.63.63-12.94.9a5.31,5.31,0,0,0-3.61,1.28c-1.17,1.24-.34,4.43-.25,6Z"/><path class="cls-4" d="M340.79,427.3a7,7,0,0,0-.25,3.53c.3,3,.59,6,.89,8.94a3.11,3.11,0,0,0,.7,2c.76.75,2.06.67,3.18.52,4.61-.59,9.17-.48,13.76-1.2a3.65,3.65,0,0,0,.92-.23,2.23,2.23,0,0,0,1-1.07c.7-1.38.55-3.74.36-5.23-.39-3-.77-5.49-1.16-8.53a2,2,0,0,0-.62-1.45,2.31,2.31,0,0,0-1.36-.32,62.18,62.18,0,0,0-10.33.64C345.55,425.21,341.84,424.89,340.79,427.3Z"/><path class="cls-4" d="M364.07,437.94a3.44,3.44,0,0,0,.44,1.82c.69,1,2.16,1,3.39.93,4.56-.42,9.11-1.34,13.69-1.11a3,3,0,0,0,2.09-.38,2.66,2.66,0,0,0,.68-2,50.47,50.47,0,0,0-.37-7.05c-.2-2.06-.41-4.12-.61-6.18a2.62,2.62,0,0,0-.19-.88c-.45-.93-1.74-1-2.77-.91-4.31.3-8.63.63-12.94.9a5.26,5.26,0,0,0-3.6,1.28c-1.18,1.24-.35,4.43-.26,6Z"/><path class="cls-4" d="M386.32,423.48a7.15,7.15,0,0,0-.26,3.53c.3,3,.59,6,.89,8.94a3.13,3.13,0,0,0,.7,2c.76.75,2.07.66,3.18.52,4.61-.6,9.17-.48,13.76-1.2a3.12,3.12,0,0,0,.92-.24,2.24,2.24,0,0,0,1-1.06c.69-1.38.55-3.74.35-5.23-.39-3-.77-5.49-1.16-8.53a2.06,2.06,0,0,0-.62-1.46,2.38,2.38,0,0,0-1.36-.31,62.3,62.3,0,0,0-10.33.64C391.07,421.39,387.36,421.07,386.32,423.48Z"/><path class="cls-4" d="M409.59,434.12a3.56,3.56,0,0,0,.44,1.82c.69,1,2.16,1,3.39.93,4.57-.42,9.12-1.34,13.7-1.11a2.9,2.9,0,0,0,2.08-.39,2.62,2.62,0,0,0,.68-2,48.92,48.92,0,0,0-.37-7q-.3-3.09-.61-6.18a2.62,2.62,0,0,0-.19-.88c-.45-.93-1.73-1-2.76-.92-4.32.31-8.63.64-12.95.9a5.31,5.31,0,0,0-3.6,1.29c-1.18,1.23-.35,4.43-.25,6Z"/><path class="cls-4" d="M217.48,461a7,7,0,0,0-.25,3.52c.29,3,.59,6,.88,8.94a3.17,3.17,0,0,0,.7,2c.77.75,2.07.67,3.19.52,4.6-.59,9.17-.48,13.76-1.2a3.65,3.65,0,0,0,.92-.23,2.23,2.23,0,0,0,1-1.07c.69-1.38.55-3.74.36-5.23-.39-3-.77-5.49-1.16-8.53a2,2,0,0,0-.63-1.45,2.28,2.28,0,0,0-1.35-.32,62.18,62.18,0,0,0-10.33.64C222.23,458.87,218.53,458.55,217.48,461Z"/><path class="cls-4" d="M240.75,471.6a3.54,3.54,0,0,0,.45,1.82c.69,1,2.16,1,3.38.93,4.57-.42,9.12-1.34,13.7-1.11a3,3,0,0,0,2.08-.38,2.6,2.6,0,0,0,.69-2,52.11,52.11,0,0,0-.37-7.06q-.31-3.09-.61-6.18a2.4,2.4,0,0,0-.2-.88c-.45-.93-1.73-1-2.76-.91-4.31.3-8.63.63-12.94.9a5.3,5.3,0,0,0-3.6,1.28c-1.18,1.24-.35,4.43-.26,6Q240.54,467.84,240.75,471.6Z"/><path class="cls-4" d="M263,457.14a7,7,0,0,0-.26,3.53c.3,3,.59,6,.89,8.94a3.13,3.13,0,0,0,.7,2c.76.75,2.06.66,3.18.52,4.61-.59,9.17-.48,13.76-1.2a3.65,3.65,0,0,0,.92-.23,2.3,2.3,0,0,0,1-1.07c.69-1.38.54-3.74.35-5.23-.39-3-.77-5.49-1.16-8.53a2,2,0,0,0-.62-1.45,2.31,2.31,0,0,0-1.36-.32,62.24,62.24,0,0,0-10.33.64C267.76,455.05,264.05,454.73,263,457.14Z"/><path class="cls-4" d="M286.28,467.78a3.44,3.44,0,0,0,.44,1.82c.69,1,2.16,1,3.39.93,4.56-.42,9.11-1.34,13.69-1.11a3,3,0,0,0,2.09-.38,2.66,2.66,0,0,0,.68-2,50.47,50.47,0,0,0-.37-7.05c-.2-2.06-.41-4.12-.61-6.18a2.62,2.62,0,0,0-.19-.88c-.45-.93-1.73-1-2.77-.91-4.31.3-8.62.63-12.94.9a5.26,5.26,0,0,0-3.6,1.28c-1.18,1.23-.35,4.43-.25,6Q286.05,464,286.28,467.78Z"/><path class="cls-4" d="M308.53,453.32a7,7,0,0,0-.25,3.53c.29,3,.59,6,.88,8.94a3.13,3.13,0,0,0,.7,2c.77.75,2.07.66,3.18.52,4.61-.6,9.18-.48,13.76-1.2a3.12,3.12,0,0,0,.92-.24,2.24,2.24,0,0,0,1-1.06c.69-1.38.55-3.74.35-5.23-.39-3-.77-5.49-1.16-8.53a2.06,2.06,0,0,0-.62-1.46,2.38,2.38,0,0,0-1.36-.31,62.3,62.3,0,0,0-10.33.64C313.28,451.22,309.57,450.9,308.53,453.32Z"/><path class="cls-4" d="M331.8,464a3.67,3.67,0,0,0,.44,1.83c.69,1,2.16,1,3.39.93,4.57-.42,9.12-1.35,13.7-1.11a2.9,2.9,0,0,0,2.08-.39,2.62,2.62,0,0,0,.68-2,50.39,50.39,0,0,0-.36-7.05c-.21-2.06-.41-4.12-.62-6.18a2.62,2.62,0,0,0-.19-.88c-.45-.93-1.73-1-2.76-.92-4.32.31-8.63.64-13,.9a5.31,5.31,0,0,0-3.6,1.29c-1.18,1.23-.34,4.43-.25,6Z"/><path class="cls-4" d="M354.05,449.5a7,7,0,0,0-.25,3.53c.29,3,.59,6,.88,8.93a3.22,3.22,0,0,0,.7,2c.77.75,2.07.66,3.19.52,4.6-.6,9.17-.48,13.76-1.2a3.29,3.29,0,0,0,.92-.24,2.26,2.26,0,0,0,1-1.06c.69-1.38.55-3.74.36-5.24-.39-3-.77-5.49-1.16-8.52a2,2,0,0,0-.63-1.46,2.35,2.35,0,0,0-1.35-.31,62.18,62.18,0,0,0-10.33.64C358.8,447.4,355.1,447.08,354.05,449.5Z"/><path class="cls-4" d="M377.32,460.13a3.58,3.58,0,0,0,.45,1.83c.69,1,2.16,1,3.38.93,4.57-.43,9.12-1.35,13.7-1.11a3,3,0,0,0,2.08-.39,2.59,2.59,0,0,0,.69-2,52,52,0,0,0-.37-7.05q-.31-3.09-.61-6.19a2.68,2.68,0,0,0-.2-.88c-.45-.92-1.73-1-2.76-.91-4.31.31-8.63.64-12.94.9a5.35,5.35,0,0,0-3.6,1.28c-1.18,1.24-.35,4.44-.26,6Q377.1,456.37,377.32,460.13Z"/><path class="cls-4" d="M399.58,445.68a7,7,0,0,0-.26,3.53c.3,3,.59,6,.89,8.93a3.11,3.11,0,0,0,.7,2c.76.75,2.06.67,3.18.53,4.61-.6,9.17-.48,13.76-1.2a3.29,3.29,0,0,0,.92-.24,2.26,2.26,0,0,0,1-1.07c.69-1.37.54-3.73.35-5.23-.39-3-.77-5.49-1.16-8.52a2,2,0,0,0-.62-1.46,2.47,2.47,0,0,0-1.36-.32,63.34,63.34,0,0,0-10.33.64C404.33,443.58,400.62,443.26,399.58,445.68Z"/><path class="cls-4" d="M422.85,456.31a3.44,3.44,0,0,0,.44,1.82c.69,1,2.16,1.05,3.39.93,4.56-.42,9.11-1.34,13.69-1.1a3,3,0,0,0,2.09-.39,2.63,2.63,0,0,0,.68-2,50.31,50.31,0,0,0-.37-7.05c-.2-2.07-.41-4.13-.61-6.19a2.62,2.62,0,0,0-.19-.88c-.45-.92-1.73-1-2.77-.91-4.31.31-8.62.63-12.94.9a5.35,5.35,0,0,0-3.6,1.28c-1.18,1.24-.35,4.44-.25,6Q422.62,452.55,422.85,456.31Z"/><path class="cls-4" d="M446.76,454.39a1.79,1.79,0,0,0,.87,1.79c1.58.93,5.24.77,8.31.5,11.42-1,22.87-2.56,34.24-2.92a17.68,17.68,0,0,0,5.25-.67,2.7,2.7,0,0,0,1.95-2.08,20.59,20.59,0,0,0,0-7.09c-.23-2.06-.47-4.11-.71-6.17a1.2,1.2,0,0,0-.36-.87c-1-.87-4.18-.77-6.76-.56-10.78.88-21.57,1.78-32.35,2.61-3.12.25-6.71.68-9.13,1.77-3.1,1.41-1.45,4.53-1.43,6.13Z"/><path class="cls-4" d="M165.39,476.94a1.8,1.8,0,0,0,.84,1.79c1.52.94,5,.79,8,.53,11-1,22-2.48,32.86-2.8a16.54,16.54,0,0,0,5-.64,2.64,2.64,0,0,0,1.87-2.08,21.63,21.63,0,0,0,0-7.09c-.24-2-.47-4.11-.71-6.17a1.23,1.23,0,0,0-.35-.87c-1-.88-4-.78-6.49-.58-10.35.84-20.69,1.7-31,2.5-3,.23-6.44.64-8.76,1.73-3,1.4-1.37,4.53-1.34,6.13C165.3,471.91,165.35,474.43,165.39,476.94Z"/><path class="cls-4" d="M431.84,419.66a7,7,0,0,0-.25,3.53c.29,3,.59,6,.88,8.93a3.16,3.16,0,0,0,.7,2c.77.75,2.07.66,3.19.52,4.6-.6,9.17-.48,13.76-1.2a3.14,3.14,0,0,0,.91-.24,2.23,2.23,0,0,0,1-1.06c.69-1.38.55-3.74.36-5.24-.39-3-.78-5.49-1.17-8.52a2,2,0,0,0-.62-1.46,2.37,2.37,0,0,0-1.35-.31,62.35,62.35,0,0,0-10.34.64C436.59,417.56,432.89,417.24,431.84,419.66Z"/><path class="cls-4" d="M455.12,430.29a2.06,2.06,0,0,0,.72,1.8c1.29,1,4.22.86,6.68.64,9.14-.82,18.3-2.15,27.41-2.32a11.2,11.2,0,0,0,4.19-.57,2.48,2.48,0,0,0,1.54-2,25.42,25.42,0,0,0-.12-7.08q-.33-3.09-.68-6.18a1.46,1.46,0,0,0-.3-.87c-.82-.89-3.37-.84-5.44-.67-8.63.68-17.26,1.39-25.89,2-2.5.19-5.37.55-7.29,1.61-2.46,1.35-1.09,4.49-1,6.09C455,425.26,455.05,427.78,455.12,430.29Z"/><path class="cls-4" d="M167.85,486.82a7,7,0,0,0-.25,3.53q.43,4.47.89,8.94a3.14,3.14,0,0,0,.69,2c.77.75,2.07.66,3.19.52,4.6-.6,9.17-.48,13.76-1.2a3.29,3.29,0,0,0,.92-.24,2.21,2.21,0,0,0,1-1.06c.69-1.38.55-3.74.36-5.24-.39-3-.77-5.49-1.16-8.52a2,2,0,0,0-.63-1.46,2.35,2.35,0,0,0-1.35-.31,62.18,62.18,0,0,0-10.33.64C172.6,484.72,168.9,484.4,167.85,486.82Z"/><path class="cls-4" d="M191.12,497.45a3.58,3.58,0,0,0,.45,1.83c.69,1,2.16,1,3.38.93,4.57-.42,9.12-1.35,13.7-1.11a2.94,2.94,0,0,0,2.09-.39,2.62,2.62,0,0,0,.68-2,52,52,0,0,0-.37-7.05c-.2-2.06-.41-4.12-.61-6.18a2.36,2.36,0,0,0-.2-.88c-.45-.93-1.73-1-2.76-.92-4.31.31-8.63.64-12.94.9a5.35,5.35,0,0,0-3.6,1.28c-1.18,1.24-.35,4.44-.26,6Q190.91,493.69,191.12,497.45Z"/><path class="cls-4" d="M213.38,483a7.15,7.15,0,0,0-.26,3.53c.3,3,.59,6,.89,8.93a3.11,3.11,0,0,0,.7,2c.76.75,2.07.67,3.18.53,4.61-.6,9.17-.48,13.76-1.2a3.29,3.29,0,0,0,.92-.24,2.26,2.26,0,0,0,1-1.07c.69-1.37.54-3.73.35-5.23-.39-3-.77-5.49-1.16-8.52a2,2,0,0,0-.62-1.46,2.38,2.38,0,0,0-1.36-.31,62.24,62.24,0,0,0-10.33.64C218.13,480.9,214.42,480.58,213.38,483Z"/><path class="cls-4" d="M410.39,479.89a3.44,3.44,0,0,0,.44,1.82c.69,1,2.16,1,3.39.93,4.56-.42,9.11-1.34,13.69-1.11a2.93,2.93,0,0,0,2.09-.39,2.62,2.62,0,0,0,.68-2,50.47,50.47,0,0,0-.37-7.05c-.2-2.06-.41-4.12-.61-6.18a2.62,2.62,0,0,0-.19-.88c-.45-.93-1.73-1-2.77-.91-4.31.3-8.62.63-12.94.9a5.26,5.26,0,0,0-3.6,1.28c-1.18,1.23-.35,4.43-.26,6Z"/><path class="cls-4" d="M432.64,465.43a7.15,7.15,0,0,0-.26,3.53q.45,4.47.89,8.94a3.13,3.13,0,0,0,.7,2c.77.75,2.07.66,3.18.52,4.61-.6,9.17-.48,13.76-1.2a3.12,3.12,0,0,0,.92-.24,2.24,2.24,0,0,0,1-1.06c.69-1.38.55-3.74.35-5.24-.39-3-.77-5.48-1.16-8.52a2.06,2.06,0,0,0-.62-1.46,2.38,2.38,0,0,0-1.36-.31,62.3,62.3,0,0,0-10.33.64C437.39,463.33,433.68,463,432.64,465.43Z"/><path class="cls-4" d="M479.29,461.69a7,7,0,0,0-.25,3.53c.29,3,.59,6,.88,8.94a3.13,3.13,0,0,0,.7,2c.77.75,2.07.66,3.18.52,4.61-.59,9.18-.48,13.76-1.2a3.45,3.45,0,0,0,.92-.23,2.3,2.3,0,0,0,1-1.07c.69-1.38.55-3.74.36-5.23-.39-3-.78-5.49-1.17-8.53a2,2,0,0,0-.62-1.45,2.3,2.3,0,0,0-1.35-.32,62.35,62.35,0,0,0-10.34.64C484,459.6,480.34,459.28,479.29,461.69Z"/><path class="cls-4" d="M456,463.56a7.15,7.15,0,0,0-.26,3.53c.3,3,.59,6,.89,8.93a3.11,3.11,0,0,0,.7,2c.76.75,2.07.67,3.18.53,4.61-.6,9.17-.48,13.76-1.2a3.12,3.12,0,0,0,.92-.24,2.26,2.26,0,0,0,1-1.07c.69-1.37.55-3.73.35-5.23-.39-3-.77-5.49-1.16-8.52a2,2,0,0,0-.62-1.46,2.38,2.38,0,0,0-1.36-.31,62.3,62.3,0,0,0-10.33.64C460.76,461.46,457.05,461.14,456,463.56Z"/><path class="cls-4" d="M236.65,493.63a2.79,2.79,0,0,0,.54,1.82c.89,1,2.85,1,4.49.83,6.11-.56,12.21-1.62,18.32-1.52a5.05,5.05,0,0,0,2.79-.45,2.37,2.37,0,0,0,1-2,37.83,37.83,0,0,0-.28-7.06q-.32-3.09-.64-6.18a2,2,0,0,0-.23-.88c-.57-.91-2.28-.94-3.66-.83-5.77.43-11.54.89-17.31,1.28A9.08,9.08,0,0,0,236.8,480c-1.61,1.28-.59,4.46-.52,6Q236.48,489.87,236.65,493.63Z"/><path class="cls-4" d="M380.62,482.1a2.75,2.75,0,0,0,.54,1.81c.89,1,2.85,1,4.49.83,6.11-.55,12.21-1.61,18.32-1.51a5.24,5.24,0,0,0,2.79-.45,2.4,2.4,0,0,0,1-2,37.9,37.9,0,0,0-.28-7.06q-.31-3.09-.64-6.18a2,2,0,0,0-.23-.88c-.57-.91-2.28-.93-3.66-.83-5.77.44-11.53.89-17.3,1.29a8.91,8.91,0,0,0-4.85,1.39c-1.61,1.27-.59,4.45-.52,6.05Q380.45,478.33,380.62,482.1Z"/><path class="cls-5" d="M851.93,286.18c-5.8,4.87-9,12.12-12.06,19.1Q828.44,331.65,817,358c-1.83,4.23-3.71,8.85-2.63,13.29,1.54,6.4,8.34,9.64,14.38,12,25,9.8,47.51,23.45,72.75,32.49a17.7,17.7,0,0,0,5.33,1.3c3,.09,5.85-1.34,8.27-3.15,7.68-5.77,14.17-19.43,17.78-28.38,7.32-18.16,12.91-33.05,20.23-51.21,1.28-3.19,2.58-6.79,1.33-9.95-1-2.59-3.49-4.22-5.84-5.65-17.33-10.5-31.79-17.16-53.83-25.86C882.2,287.94,864.57,275.58,851.93,286.18Z"/><path class="cls-6" d="M859.78,291.46a1.12,1.12,0,0,0,.9-2.06A1.12,1.12,0,0,0,859.78,291.46Z"/><path class="cls-6" d="M872.38,294.91a1.1,1.1,0,0,0,.89-2A1.1,1.1,0,0,0,872.38,294.91Z"/><path class="cls-6" d="M869,300.16a1,1,0,0,0-.77,1.75A1,1,0,0,0,869,300.16Z"/><path class="cls-6" d="M865.75,302.93a.88.88,0,0,0-.71,1.61A.88.88,0,0,0,865.75,302.93Z"/><path class="cls-6" d="M856.48,299.6l-1.21,1.19a.57.57,0,0,0-.15.42,1,1,0,1,0,1.18.51l.06,0,1.21-1.19a.71.71,0,0,0-.1-1A.72.72,0,0,0,856.48,299.6Z"/><path class="cls-6" d="M864.92,297a1,1,0,0,0,.77-1.76A1,1,0,0,0,864.92,297Z"/><path class="cls-6" d="M866,297.6a.44.44,0,0,0,.35-.81A.44.44,0,0,0,866,297.6Z"/><path class="cls-6" d="M874.33,306.14a1.13,1.13,0,0,0,.91-2.06A1.13,1.13,0,0,0,874.33,306.14Z"/><path class="cls-6" d="M874.28,311a1.13,1.13,0,0,0,.91-2.07A1.13,1.13,0,0,0,874.28,311Z"/><path class="cls-6" d="M869.63,311.35a1,1,0,0,0-.85,1.91A1,1,0,0,0,869.63,311.35Z"/><path class="cls-6" d="M861.13,311.85a1,1,0,0,0-.76,1.73A.95.95,0,0,0,861.13,311.85Z"/><path class="cls-6" d="M854.54,310.39a1,1,0,0,0,.81-1.84A1,1,0,0,0,854.54,310.39Z"/><path class="cls-6" d="M851.24,306.93a.83.83,0,0,0-.67,1.52A.83.83,0,0,0,851.24,306.93Z"/><path class="cls-6" d="M849.19,301.4a.93.93,0,0,0,.75-1.7A.93.93,0,0,0,849.19,301.4Z"/><path class="cls-6" d="M854.65,296a.76.76,0,0,0,.62-1.39A.76.76,0,0,0,854.65,296Z"/><path class="cls-6" d="M858.14,302.22a.6.6,0,0,0,.48-1.09A.6.6,0,0,0,858.14,302.22Z"/><path class="cls-6" d="M861.13,307.15a.83.83,0,0,0-.66,1.52A.83.83,0,0,0,861.13,307.15Z"/><path class="cls-6" d="M864.45,312.93a.66.66,0,0,0-.54,1.21A.66.66,0,0,0,864.45,312.93Z"/><path class="cls-6" d="M862.41,319.91a.87.87,0,0,0,.7-1.59A.87.87,0,0,0,862.41,319.91Z"/><path class="cls-6" d="M855,325.08a1,1,0,0,0,.84-1.89A1,1,0,0,0,855,325.08Z"/><path class="cls-6" d="M846,317.19a1,1,0,0,0-.81,1.85A1,1,0,0,0,846,317.19Z"/><path class="cls-6" d="M841.49,311.85a.92.92,0,0,0-.74,1.68A.92.92,0,0,0,841.49,311.85Z"/><path class="cls-6" d="M852.22,312.52a.84.84,0,0,0-.67,1.54A.84.84,0,0,0,852.22,312.52Z"/><path class="cls-6" d="M863.81,317.51a1,1,0,0,0,.76-1.73A.95.95,0,0,0,863.81,317.51Z"/><path class="cls-6" d="M871.12,318.14a1.1,1.1,0,0,0,.89-2A1.1,1.1,0,0,0,871.12,318.14Z"/><path class="cls-6" d="M876.17,325.45a1,1,0,0,0,.82-1.88A1,1,0,0,0,876.17,325.45Z"/><path class="cls-6" d="M871.08,331.51a1.06,1.06,0,0,0,.86-1.93A1.06,1.06,0,0,0,871.08,331.51Z"/><path class="cls-6" d="M866.82,334.93a1,1,0,0,0-.83,1.9A1,1,0,0,0,866.82,334.93Z"/><path class="cls-6" d="M855.05,333.79a.49.49,0,0,0,.2.46,1.06,1.06,0,0,0,.6,1.34,1.15,1.15,0,0,0,.92-2.1,1.06,1.06,0,0,0-.62-.08c0-.15,0-.31,0-.46.06-.67-1-.83-1.05-.15Z"/><path class="cls-6" d="M870.09,327.5a1.25,1.25,0,0,0,1-2.29A1.25,1.25,0,0,0,870.09,327.5Z"/><path class="cls-6" d="M870.53,332.78a1,1,0,0,0-.83,1.88A1,1,0,0,0,870.53,332.78Z"/><path class="cls-6" d="M873.76,340.31a1.12,1.12,0,0,0-.9,2.05A1.12,1.12,0,0,0,873.76,340.31Z"/><path class="cls-6" d="M869.94,345.85a1.08,1.08,0,0,0,.87-2A1.08,1.08,0,0,0,869.94,345.85Z"/><path class="cls-6" d="M858,342.41a1.05,1.05,0,0,0-.85,1.93A1.05,1.05,0,0,0,858,342.41Z"/><path class="cls-6" d="M849.31,338.71a.93.93,0,0,0-.75,1.7A.93.93,0,0,0,849.31,338.71Z"/><path class="cls-6" d="M844.21,336.2a1,1,0,0,0,.83-1.9A1,1,0,0,0,844.21,336.2Z"/><path class="cls-6" d="M861.05,327.69a1.24,1.24,0,0,0-1,2.27A1.24,1.24,0,0,0,861.05,327.69Z"/><path class="cls-6" d="M864.05,328.7a1,1,0,0,0,.81-1.83A1,1,0,0,0,864.05,328.7Z"/><path class="cls-6" d="M859.7,338.59a1.13,1.13,0,0,0-.91,2.06A1.13,1.13,0,0,0,859.7,338.59Z"/><path class="cls-6" d="M862.56,349.32a1,1,0,0,0-.79,1.79A1,1,0,0,0,862.56,349.32Z"/><path class="cls-6" d="M852.94,348.46a1,1,0,0,0-.84,1.9A1,1,0,0,0,852.94,348.46Z"/><path class="cls-6" d="M842.6,347.68a1.05,1.05,0,0,0-.85,1.93A1.05,1.05,0,0,0,842.6,347.68Z"/><path class="cls-6" d="M840.77,344.79a1.14,1.14,0,0,0,.91-2.08A1.14,1.14,0,0,0,840.77,344.79Z"/><path class="cls-6" d="M844.6,329.84a.73.73,0,0,0,.59-1.34A.73.73,0,0,0,844.6,329.84Z"/><path class="cls-6" d="M854,328.12a1.06,1.06,0,0,0-1.17.18,1,1,0,0,0-.22-.16.88.88,0,0,0-.71,1.61.8.8,0,0,0,.66,0,1.07,1.07,0,0,0,.52.45A1.15,1.15,0,0,0,854,328.12Z"/><path class="cls-6" d="M843.36,322.47a1.09,1.09,0,0,0-.88,2A1.09,1.09,0,0,0,843.36,322.47Z"/><path class="cls-6" d="M837.76,329.72a.86.86,0,0,0,.69-1.57A.86.86,0,0,0,837.76,329.72Z"/><path class="cls-6" d="M834.06,338.9a.92.92,0,0,0-.74,1.68A.92.92,0,0,0,834.06,338.9Z"/><path class="cls-6" d="M836,351a.83.83,0,0,0,.67-1.52A.83.83,0,0,0,836,351Z"/><path class="cls-6" d="M847.83,359.27a1.08,1.08,0,0,0-.86,2A1.08,1.08,0,0,0,847.83,359.27Z"/><path class="cls-6" d="M850.47,367.38a1,1,0,0,0-.83,1.87A1,1,0,0,0,850.47,367.38Z"/><path class="cls-6" d="M840.53,368a1.15,1.15,0,0,0-.93,2.11A1.15,1.15,0,0,0,840.53,368Z"/><path class="cls-6" d="M830.21,364.07a1.25,1.25,0,0,0-1,2.29A1.25,1.25,0,0,0,830.21,364.07Z"/><path class="cls-6" d="M826.83,352.19A1,1,0,0,0,826,354,1,1,0,0,0,826.83,352.19Z"/><path class="cls-6" d="M834.27,350.15a1.11,1.11,0,0,0-.89,2A1.11,1.11,0,0,0,834.27,350.15Z"/><path class="cls-6" d="M839.21,360.07a1.28,1.28,0,0,0-1,2.35A1.28,1.28,0,0,0,839.21,360.07Z"/><path class="cls-6" d="M830.77,368.28a1.09,1.09,0,0,0-.88,2A1.09,1.09,0,0,0,830.77,368.28Z"/><path class="cls-6" d="M830.41,376.15a1,1,0,0,0-.81,1.82A1,1,0,0,0,830.41,376.15Z"/><path class="cls-6" d="M828.05,370.56a1.06,1.06,0,0,0-.86,1.94A1.06,1.06,0,0,0,828.05,370.56Z"/><path class="cls-6" d="M845.13,377.15a1,1,0,0,0-.78,1.77A1,1,0,0,0,845.13,377.15Z"/><path class="cls-6" d="M852.9,378.3a.84.84,0,0,0-.68,1.54A.84.84,0,0,0,852.9,378.3Z"/><path class="cls-6" d="M858.13,372.67a1.16,1.16,0,0,0-.94,2.13A1.16,1.16,0,0,0,858.13,372.67Z"/><path class="cls-6" d="M859.37,358.11a1.11,1.11,0,0,0-.89,2A1.11,1.11,0,0,0,859.37,358.11Z"/><path class="cls-6" d="M869.65,354.33a1.14,1.14,0,0,0-.92,2.09A1.14,1.14,0,0,0,869.65,354.33Z"/><path class="cls-6" d="M877.7,357.19a.82.82,0,0,0-.66,1.5A.82.82,0,0,0,877.7,357.19Z"/><path class="cls-6" d="M883.25,348.5a1.23,1.23,0,0,0-1,2.25A1.23,1.23,0,0,0,883.25,348.5Z"/><path class="cls-6" d="M884.25,332.15a1.14,1.14,0,0,0-.93,2.09A1.14,1.14,0,0,0,884.25,332.15Z"/><path class="cls-6" d="M879.94,325.5a1.08,1.08,0,0,0-.87,2A1.08,1.08,0,0,0,879.94,325.5Z"/><path class="cls-6" d="M878.09,319.52a1.13,1.13,0,0,0,.91-2.07A1.13,1.13,0,0,0,878.09,319.52Z"/><path class="cls-6" d="M885.4,309.17a.88.88,0,0,0-.7,1.61A.88.88,0,0,0,885.4,309.17Z"/><path class="cls-6" d="M893.68,311.5a1.07,1.07,0,0,0,.87-2A1.07,1.07,0,0,0,893.68,311.5Z"/><path class="cls-6" d="M894.71,309.17a1,1,0,0,0,.84-1.92A1,1,0,0,0,894.71,309.17Z"/><path class="cls-6" d="M888,301.73a1,1,0,0,0,.84-1.92A1,1,0,0,0,888,301.73Z"/><path class="cls-6" d="M877.49,300.53a1,1,0,0,0,.83-1.88A1,1,0,0,0,877.49,300.53Z"/><path class="cls-6" d="M884,295.17a1.08,1.08,0,0,0,.86-2A1.08,1.08,0,0,0,884,295.17Z"/><path class="cls-6" d="M890.67,297.2a.87.87,0,0,0,.7-1.59A.87.87,0,0,0,890.67,297.2Z"/><path class="cls-6" d="M890.47,307.05a.82.82,0,0,0,.66-1.49A.82.82,0,0,0,890.47,307.05Z"/><path class="cls-6" d="M885.62,312.6a.91.91,0,0,0,.73-1.67A.91.91,0,0,0,885.62,312.6Z"/><path class="cls-6" d="M891,320.68a1.09,1.09,0,0,0,.87-2A1.09,1.09,0,0,0,891,320.68Z"/><path class="cls-6" d="M886,327.43a1.12,1.12,0,0,0-.9,2A1.12,1.12,0,0,0,886,327.43Z"/><path class="cls-6" d="M829.31,343.43a1,1,0,0,0,.84-1.91A1,1,0,0,0,829.31,343.43Z"/><path class="cls-6" d="M824.26,353.32a1.12,1.12,0,0,0-.9,2.05A1.12,1.12,0,0,0,824.26,353.32Z"/><path class="cls-6" d="M826.21,359.86a1,1,0,0,0-.78,1.77A1,1,0,0,0,826.21,359.86Z"/><path class="cls-6" d="M848.62,354.35a.85.85,0,0,0-.68,1.55A.85.85,0,0,0,848.62,354.35Z"/><path class="cls-6" d="M861.43,359.71a1.1,1.1,0,0,0-.89,2A1.1,1.1,0,0,0,861.43,359.71Z"/><path class="cls-6" d="M866.92,366.8a1.28,1.28,0,0,0,1-2.34A1.28,1.28,0,0,0,866.92,366.8Z"/><path class="cls-6" d="M866.84,368.55a1.2,1.2,0,0,0-1.46,1.76,1,1,0,1,0,1.2.49A1.2,1.2,0,0,0,866.84,368.55Z"/><path class="cls-6" d="M869.5,374.24a1.15,1.15,0,0,0-.93,2.11A1.15,1.15,0,0,0,869.5,374.24Z"/><path class="cls-6" d="M899.05,309.59a1.13,1.13,0,0,0,.91-2.06A1.13,1.13,0,0,0,899.05,309.59Z"/><path class="cls-6" d="M911.66,313a1.09,1.09,0,0,0,.88-2A1.09,1.09,0,0,0,911.66,313Z"/><path class="cls-6" d="M908.32,318.28a1,1,0,0,0-.78,1.76A1,1,0,0,0,908.32,318.28Z"/><path class="cls-6" d="M905,321.06a.88.88,0,0,0-.71,1.61A.88.88,0,0,0,905,321.06Z"/><path class="cls-6" d="M895.76,317.73l-1.22,1.19a.57.57,0,0,0-.14.42,1,1,0,0,0-.08,1.77,1,1,0,0,0,1.26-1.26s0,0,0,0l1.22-1.19a.71.71,0,0,0-.1-1A.72.72,0,0,0,895.76,317.73Z"/><path class="cls-6" d="M904.2,315.12a1,1,0,0,0,.77-1.76A1,1,0,0,0,904.2,315.12Z"/><path class="cls-6" d="M905.31,315.73a.44.44,0,0,0,.35-.81A.44.44,0,0,0,905.31,315.73Z"/><path class="cls-6" d="M913.61,324.27a1.12,1.12,0,0,0,.9-2.06A1.12,1.12,0,0,0,913.61,324.27Z"/><path class="cls-6" d="M913.56,329.08a1.13,1.13,0,0,0,.91-2.07A1.13,1.13,0,0,0,913.56,329.08Z"/><path class="cls-6" d="M908.9,329.47a1,1,0,0,0-.84,1.92A1,1,0,0,0,908.9,329.47Z"/><path class="cls-6" d="M900.41,330a1,1,0,0,0-.76,1.73A.95.95,0,0,0,900.41,330Z"/><path class="cls-6" d="M893.81,328.52a1,1,0,0,0,.82-1.84A1,1,0,0,0,893.81,328.52Z"/><path class="cls-6" d="M889.84,326.58a.73.73,0,0,0,.54,0,1,1,0,0,0,.44,1.56,1.08,1.08,0,0,0,.87-2,1,1,0,0,0-.79,0,.78.78,0,0,0-.39-1.1A.83.83,0,0,0,889.84,326.58Z"/><path class="cls-6" d="M888.47,319.53a.93.93,0,0,0,.75-1.7A.93.93,0,0,0,888.47,319.53Z"/><path class="cls-6" d="M893.93,314.17a.76.76,0,0,0,.61-1.39A.76.76,0,0,0,893.93,314.17Z"/><path class="cls-6" d="M897.41,320.35a.6.6,0,0,0,.48-1.09A.6.6,0,0,0,897.41,320.35Z"/><path class="cls-6" d="M900.41,325.28a.83.83,0,0,0-.67,1.52A.83.83,0,0,0,900.41,325.28Z"/><path class="cls-6" d="M903.72,331.06a.66.66,0,0,0-.53,1.21A.66.66,0,0,0,903.72,331.06Z"/><path class="cls-6" d="M901.68,338a.87.87,0,0,0,.71-1.59A.87.87,0,0,0,901.68,338Z"/><path class="cls-6" d="M894.24,343.21a1,1,0,0,0,.83-1.89A1,1,0,0,0,894.24,343.21Z"/><path class="cls-6" d="M885.3,335.32a1,1,0,0,0-1.38.87,1.23,1.23,0,1,0,1.27,1A1,1,0,0,0,885.3,335.32Z"/><path class="cls-6" d="M880,331.66a.92.92,0,0,0,.74-1.68A.92.92,0,0,0,880,331.66Z"/><path class="cls-6" d="M891.5,330.65a.84.84,0,0,0-.68,1.54A.84.84,0,0,0,891.5,330.65Z"/><path class="cls-6" d="M903.09,335.64a1,1,0,0,0,.76-1.74A1,1,0,0,0,903.09,335.64Z"/><path class="cls-6" d="M910.39,336.27a1.1,1.1,0,0,0,.89-2A1.1,1.1,0,0,0,910.39,336.27Z"/><path class="cls-6" d="M915.44,343.58a1,1,0,0,0,.83-1.88A1,1,0,0,0,915.44,343.58Z"/><path class="cls-6" d="M910.36,349.64a1.05,1.05,0,0,0,.85-1.93A1.05,1.05,0,0,0,910.36,349.64Z"/><path class="cls-6" d="M906.1,353.06a1,1,0,0,0-.84,1.9A1,1,0,0,0,906.1,353.06Z"/><path class="cls-6" d="M894.33,351.92a.51.51,0,0,0,.19.46,1.07,1.07,0,0,0,.61,1.34,1.15,1.15,0,0,0,.92-2.1,1,1,0,0,0-.63-.08c0-.16,0-.31,0-.46.07-.67-1-.83-1-.15Z"/><path class="cls-6" d="M909.37,345.63a1.25,1.25,0,0,0,1-2.29A1.25,1.25,0,0,0,909.37,345.63Z"/><path class="cls-6" d="M909.8,350.91a1,1,0,0,0-.83,1.88A1,1,0,0,0,909.8,350.91Z"/><path class="cls-6" d="M913,358.44a1.12,1.12,0,0,0-.91,2.05A1.12,1.12,0,0,0,913,358.44Z"/><path class="cls-6" d="M909.22,364a1.08,1.08,0,0,0,.86-2A1.08,1.08,0,0,0,909.22,364Z"/><path class="cls-6" d="M897.29,360.54a1.06,1.06,0,0,0-.85,1.93A1.06,1.06,0,0,0,897.29,360.54Z"/><path class="cls-6" d="M888.58,356.84a.93.93,0,0,0-.75,1.7A.93.93,0,0,0,888.58,356.84Z"/><path class="cls-6" d="M883.48,354.33a1,1,0,0,0,.84-1.9A1,1,0,0,0,883.48,354.33Z"/><path class="cls-6" d="M900.33,345.82a1.24,1.24,0,0,0-1,2.27A1.24,1.24,0,0,0,900.33,345.82Z"/><path class="cls-6" d="M903.33,346.83a1,1,0,0,0,.8-1.83A1,1,0,0,0,903.33,346.83Z"/><path class="cls-6" d="M899,356.72a1.12,1.12,0,0,0-.9,2.06A1.12,1.12,0,0,0,899,356.72Z"/><path class="cls-6" d="M901.83,367.45a1,1,0,0,0-.79,1.78A1,1,0,0,0,901.83,367.45Z"/><path class="cls-6" d="M892.21,366.59a1,1,0,0,0-.83,1.9A1,1,0,0,0,892.21,366.59Z"/><path class="cls-6" d="M881.87,365.81a1.06,1.06,0,0,0-.85,1.93A1.06,1.06,0,0,0,881.87,365.81Z"/><path class="cls-6" d="M880.05,362.92a1.14,1.14,0,0,0,.91-2.08A1.14,1.14,0,0,0,880.05,362.92Z"/><path class="cls-6" d="M884.46,346.63a.73.73,0,0,0-.59,1.34A.73.73,0,0,0,884.46,346.63Z"/><path class="cls-6" d="M893.24,346.25a1,1,0,0,0-1.16.18.88.88,0,1,0-.93,1.45.78.78,0,0,0,.65,0,1.09,1.09,0,0,0,.52.44A1.14,1.14,0,0,0,893.24,346.25Z"/><path class="cls-6" d="M882.64,340.6a1.1,1.1,0,0,0-.89,2A1.1,1.1,0,0,0,882.64,340.6Z"/><path class="cls-6" d="M877.72,346.28a.86.86,0,0,0-.69,1.57A.86.86,0,0,0,877.72,346.28Z"/><path class="cls-6" d="M873.33,357a.92.92,0,0,0-.74,1.68A.92.92,0,0,0,873.33,357Z"/><path class="cls-6" d="M875.26,369.09a.83.83,0,0,0,.67-1.52A.83.83,0,0,0,875.26,369.09Z"/><path class="cls-6" d="M887.11,377.4a1.08,1.08,0,0,0-.87,2A1.08,1.08,0,0,0,887.11,377.4Z"/><path class="cls-6" d="M889.74,385.5a1,1,0,0,0-.82,1.88A1,1,0,0,0,889.74,385.5Z"/><path class="cls-6" d="M879.81,386.16a1.15,1.15,0,0,0-.93,2.11A1.15,1.15,0,0,0,879.81,386.16Z"/><path class="cls-6" d="M869.49,382.2a1.25,1.25,0,0,0-1,2.29A1.25,1.25,0,0,0,869.49,382.2Z"/><path class="cls-6" d="M873.55,368.28a1.12,1.12,0,0,0-.9,2A1.12,1.12,0,0,0,873.55,368.28Z"/><path class="cls-6" d="M878.48,378.2a1.28,1.28,0,0,0-1,2.34A1.28,1.28,0,0,0,878.48,378.2Z"/><path class="cls-6" d="M870.05,386.41a1.09,1.09,0,0,0-.88,2A1.09,1.09,0,0,0,870.05,386.41Z"/><path class="cls-6" d="M869.68,394.28a1,1,0,0,0-.8,1.82A1,1,0,0,0,869.68,394.28Z"/><path class="cls-6" d="M867.32,388.68a1.07,1.07,0,0,0-.86,1.95A1.07,1.07,0,0,0,867.32,388.68Z"/><path class="cls-6" d="M884.41,395.28a1,1,0,0,0-.78,1.77A1,1,0,0,0,884.41,395.28Z"/><path class="cls-6" d="M892.17,396.43a.84.84,0,0,0-.68,1.53A.84.84,0,0,0,892.17,396.43Z"/><path class="cls-6" d="M897.41,390.8a1.16,1.16,0,0,0-.94,2.13A1.16,1.16,0,0,0,897.41,390.8Z"/><path class="cls-6" d="M897.76,378.27a1.11,1.11,0,0,0,.89-2A1.11,1.11,0,0,0,897.76,378.27Z"/><path class="cls-6" d="M908.93,372.46a1.14,1.14,0,0,0-.92,2.09A1.14,1.14,0,0,0,908.93,372.46Z"/><path class="cls-6" d="M916.31,376.82a.82.82,0,0,0,.66-1.5A.82.82,0,0,0,916.31,376.82Z"/><path class="cls-6" d="M922.52,366.63a1.23,1.23,0,0,0-1,2.25A1.23,1.23,0,0,0,922.52,366.63Z"/><path class="cls-6" d="M922.77,356.68a1.23,1.23,0,0,0,1-2.25A1.23,1.23,0,0,0,922.77,356.68Z"/><path class="cls-6" d="M923.52,350.28a1.14,1.14,0,0,0-.92,2.09A1.14,1.14,0,0,0,923.52,350.28Z"/><path class="cls-6" d="M919.21,343.63a1.08,1.08,0,0,0-.87,2A1.08,1.08,0,0,0,919.21,343.63Z"/><path class="cls-6" d="M917.36,337.65a1.14,1.14,0,0,0,.92-2.08A1.14,1.14,0,0,0,917.36,337.65Z"/><path class="cls-6" d="M924.68,327.3a.88.88,0,0,0-.71,1.61A.88.88,0,0,0,924.68,327.3Z"/><path class="cls-6" d="M933,329.63a1.07,1.07,0,0,0,.86-2A1.07,1.07,0,0,0,933,329.63Z"/><path class="cls-6" d="M934,327.3a1.05,1.05,0,0,0,.85-1.92A1.05,1.05,0,0,0,934,327.3Z"/><path class="cls-6" d="M927.27,319.86a1,1,0,0,0,.84-1.92A1,1,0,0,0,927.27,319.86Z"/><path class="cls-6" d="M916.77,318.66a1,1,0,0,0,.82-1.88A1,1,0,0,0,916.77,318.66Z"/><path class="cls-6" d="M923.26,313.3a1.08,1.08,0,0,0,.87-2A1.08,1.08,0,0,0,923.26,313.3Z"/><path class="cls-6" d="M930,315.33a.87.87,0,0,0,.7-1.59A.87.87,0,0,0,930,315.33Z"/><path class="cls-6" d="M929.75,325.18a.81.81,0,0,0,.65-1.49A.81.81,0,0,0,929.75,325.18Z"/><path class="cls-6" d="M924.89,330.73a.91.91,0,0,0,.74-1.67A.91.91,0,0,0,924.89,330.73Z"/><path class="cls-6" d="M930.29,338.81a1.09,1.09,0,0,0,.88-2A1.09,1.09,0,0,0,930.29,338.81Z"/><path class="cls-6" d="M930.1,346.3a1.08,1.08,0,0,0,.87-2A1.08,1.08,0,0,0,930.1,346.3Z"/><path class="cls-6" d="M924.36,347.6a1.11,1.11,0,0,0,.89-2A1.11,1.11,0,0,0,924.36,347.6Z"/><path class="cls-6" d="M868.58,361.56a1,1,0,0,0,.84-1.91A1,1,0,0,0,868.58,361.56Z"/><path class="cls-6" d="M863.54,371.45a1.12,1.12,0,0,0-.91,2.05A1.12,1.12,0,0,0,863.54,371.45Z"/><path class="cls-6" d="M865.48,378a1,1,0,0,0-.78,1.77A1,1,0,0,0,865.48,378Z"/><path class="cls-6" d="M887.9,372.48a.85.85,0,0,0-.69,1.55A.85.85,0,0,0,887.9,372.48Z"/><path class="cls-6" d="M900.7,377.84a1.1,1.1,0,0,0-.89,2A1.1,1.1,0,0,0,900.7,377.84Z"/><path class="cls-6" d="M907.23,382.59a1.28,1.28,0,0,0-1,2.34A1.28,1.28,0,0,0,907.23,382.59Z"/><path class="cls-6" d="M906.11,386.68a1.19,1.19,0,0,0-1,2.17A1.19,1.19,0,0,0,906.11,386.68Z"/><path class="cls-6" d="M908.78,392.37a1.15,1.15,0,0,0-.93,2.11A1.15,1.15,0,0,0,908.78,392.37Z"/><path class="cls-6" d="M928.33,387.13a1,1,0,0,0-.84,1.87A1,1,0,0,0,928.33,387.13Z"/><path class="cls-6" d="M931.71,370.23a1.12,1.12,0,0,0-.92,2A1.12,1.12,0,0,0,931.71,370.23Z"/><path class="cls-6" d="M933.76,368.72a1.08,1.08,0,0,0,.88-2A1.08,1.08,0,0,0,933.76,368.72Z"/><path class="cls-6" d="M946.55,340a1.16,1.16,0,0,0,1-2.12A1.16,1.16,0,0,0,946.55,340Z"/><path class="cls-6" d="M935,358.27a1.14,1.14,0,0,0,.93-2.08A1.14,1.14,0,0,0,935,358.27Z"/><path class="cls-6" d="M926.92,355.38a.82.82,0,0,0,.67-1.5A.82.82,0,0,0,926.92,355.38Z"/><path class="cls-6" d="M921.34,364.05a1.23,1.23,0,0,0,1-2.25A1.23,1.23,0,0,0,921.34,364.05Z"/><path class="cls-6" d="M920.05,376.25a1.23,1.23,0,0,0,1-2.25A1.23,1.23,0,0,0,920.05,376.25Z"/><path class="cls-6" d="M920.28,380.4a1.14,1.14,0,0,0,.93-2.09A1.14,1.14,0,0,0,920.28,380.4Z"/><path class="cls-6" d="M924.56,387.06a1.07,1.07,0,0,0,.87-2A1.07,1.07,0,0,0,924.56,387.06Z"/><path class="cls-6" d="M919.74,401.76a.88.88,0,0,0-.71,1.61A.88.88,0,0,0,919.74,401.76Z"/><path class="cls-6" d="M910.76,401a1.08,1.08,0,0,0-.87,2A1.08,1.08,0,0,0,910.76,401Z"/><path class="cls-6" d="M909.72,403.34a1,1,0,0,0-.85,1.91A1,1,0,0,0,909.72,403.34Z"/><path class="cls-6" d="M914,405.47a.82.82,0,0,0-.66,1.49A.82.82,0,0,0,914,405.47Z"/><path class="cls-6" d="M918.83,399.94a.91.91,0,0,0-.74,1.66A.91.91,0,0,0,918.83,399.94Z"/><path class="cls-6" d="M913.46,391.84a1.08,1.08,0,0,0-.88,2A1.08,1.08,0,0,0,913.46,391.84Z"/><path class="cls-6" d="M913.69,384.34a1.09,1.09,0,0,0-.89,2A1.09,1.09,0,0,0,913.69,384.34Z"/><path class="cls-6" d="M919.43,383.07a1.12,1.12,0,0,0-.9,2A1.12,1.12,0,0,0,919.43,383.07Z"/><path class="cls-6" d="M937.74,345.81a1.28,1.28,0,0,0-1,2.34A1.28,1.28,0,0,0,937.74,345.81Z"/><path class="cls-6" d="M937.83,344.06a1.18,1.18,0,0,0,1-2.16A1.18,1.18,0,0,0,937.83,344.06Z"/><path class="cls-6" d="M935.19,338.36a1.15,1.15,0,0,0,.93-2.1A1.15,1.15,0,0,0,935.19,338.36Z"/><path class="cls-6" d="M888,401.22a1.24,1.24,0,0,0-1,2.27A1.24,1.24,0,0,0,888,401.22Z"/><path class="cls-6" d="M903.89,398.67a1.17,1.17,0,0,0-.94,2.14A1.17,1.17,0,0,0,903.89,398.67Z"/><path class="cls-6" d="M904.07,408.43a.82.82,0,0,0-.66,1.51A.82.82,0,0,0,904.07,408.43Z"/><path class="cls-6" d="M948.57,324.6a1.18,1.18,0,0,0-1,2.15A1.18,1.18,0,0,0,948.57,324.6Z"/><path class="cls-7" d="M920.22,387.73A35,35,0,0,0,932,373.13a62.83,62.83,0,0,0,4-16.86c1.83-14.47-1.19-28.85-10.48-40.35a47.15,47.15,0,0,0-5.34-5.61,45,45,0,0,0-12.63-9.38,49,49,0,0,0-18.65-4.74c-6.5-.19-12.88,1.38-19.27,2.68a43.86,43.86,0,0,0-29.94,21.89c-5.75,10.5-9.34,23.35-7.32,35.55,2.19,13.27,11.28,25.42,20.89,34.41,8.38,7.83,19.42,11.35,30.8,10.89C897.27,401.08,909.58,395.25,920.22,387.73Z"/><path class="cls-7" d="M943.82,416.94c2.12-3.32-.36-6.89-2.56-9.54l-16.19-19.49c-1.29-1.55-2.84-3.24-4.86-3.32-1.55-.07-2.93.84-4.19,1.72l-4.41,3.07c-1.11.77-2.33,1.77-2.27,3.11a4,4,0,0,0,.8,1.92A136.49,136.49,0,0,0,918.52,406q3.88,4.83,8.21,9.31c2.25,2.32,5,5.93,8.49,6.21C938.16,421.8,942.29,419.33,943.82,416.94Z"/><path class="cls-8" d="M915.78,381.53a31.9,31.9,0,0,0,10.67-12.82A54.76,54.76,0,0,0,930.26,354c1.83-12.57-.66-25-8.76-34.85a40.52,40.52,0,0,0-4.67-4.78,38.32,38.32,0,0,0-11.11-8,43.76,43.76,0,0,0-16.54-3.85c-5.78-.08-11.48,1.38-17.19,2.6a40.68,40.68,0,0,0-27,19.41c-5.26,9.18-8.63,20.37-7,30.93,1.77,11.47,9.68,21.88,18.11,29.55,7.35,6.67,17.12,9.57,27.26,9C895.16,393.43,906.19,388.2,915.78,381.53Z"/><path class="cls-9" d="M914.45,380.08a30.61,30.61,0,0,0,10.23-12.28,52.48,52.48,0,0,0,3.64-14.07c1.76-12.05-.62-24-8.39-33.38a38.73,38.73,0,0,0-4.47-4.59,36.88,36.88,0,0,0-10.65-7.63A42,42,0,0,0,889,304.45c-5.54-.07-11,1.33-16.47,2.49a39,39,0,0,0-25.82,18.59c-5,8.8-8.27,19.52-6.72,29.64,1.69,11,9.27,21,17.35,28.3,7,6.39,16.4,9.17,26.11,8.63C894.7,391.48,905.27,386.47,914.45,380.08Z"/><path class="cls-4" d="M945,465.71c-2.14-3.69-4.43-7.37-7.6-10.24a27.79,27.79,0,0,0-6.34-4.22c-12.62-6.2-28.85-3.79-39.37,5.53s-14.88,24.9-11.09,38.44a129.53,129.53,0,0,0,5.82,16.56c3.74,8.65,7.15,17.49,10.65,26.24s8.26,17.3,15.58,23.24c18.29,14.84,46.87,4.18,56.36-13.4a24.53,24.53,0,0,0,2.85-7.82c.65-4.25-.38-8.57-1.53-12.71C964.92,507.79,955.15,483.24,945,465.71Z"/><path class="cls-10" d="M97.11,370.05a34.18,34.18,0,0,0,10.34-15.11,61.74,61.74,0,0,0,2.61-16.74c.66-14.23-3.38-28-13.31-38.49a48.29,48.29,0,0,0-5.63-5,44.12,44.12,0,0,0-13-8.17,48.16,48.16,0,0,0-18.53-3.18c-6.34.32-12.43,2.34-18.56,4.1A42.84,42.84,0,0,0,13.53,311c-4.78,10.66-7.29,23.45-4.39,35.18,3.16,12.75,12.93,23.88,23,31.9,8.76,7,19.78,9.56,30.83,8.24C75.78,384.82,87.32,378.19,97.11,370.05Z"/><path class="cls-8" d="M93.84,366.05a32.35,32.35,0,0,0,9.78-13.83,55.46,55.46,0,0,0,2.68-15.16c.85-12.86-2.66-25.23-11.64-34.55A41.11,41.11,0,0,0,89.55,298a39.13,39.13,0,0,0-11.88-7.17,44.39,44.39,0,0,0-17-2.57c-5.85.39-11.5,2.32-17.18,4a41.31,41.31,0,0,0-25.72,21.79c-4.59,9.71-7.11,21.3-4.62,31.85,2.7,11.47,11.53,21.37,20.68,28.45,8,6.16,18.08,8.31,28.29,6.94C73.93,379.73,84.68,373.56,93.84,366.05Z"/><path class="cls-11" d="M77.57,372.37c2.61,1.91,5.89,2.58,9.07,3.09,4.31.68,8.64,1.16,13,1.41,1.32.08,2.85.06,3.72-.93a4.22,4.22,0,0,0,.83-2.09,43,43,0,0,0-3.7-26.86,7.3,7.3,0,0,0-2.11-2.84,7.47,7.47,0,0,0-3.81-1,30.51,30.51,0,0,0-13.42,1.63c-4.91,1.94-9.39,5.7-9.61,11.15C71.29,361.62,72.66,368.79,77.57,372.37Z"/><path class="cls-11" d="M25.06,313.61c-3.44.47-6.47,2.45-9.37,4.39l-14.3,9.54c-.62.41-1.3.92-1.38,1.65a2.46,2.46,0,0,0,.53,1.54C7.25,341.22,20.76,345.64,33.18,345a13,13,0,0,0,6.8-1.79c3.77-2.6,4.27-7.9,4.18-12.48a14.5,14.5,0,0,0-.68-4.87c-1.5-3.95-5.61-5.67-8.58-8.29S29.47,313,25.06,313.61Z"/><path class="cls-11" d="M113.24,322.83c2.66-1.91,5.51-4.67,4.88-7.88a6.1,6.1,0,0,0-3.81-4.19,18.12,18.12,0,0,0-5.77-1.05l-21.61-1.52a11.88,11.88,0,0,0-4.72.3c-3.92,1.34-5.32,6.21-5.28,10.35C77.16,341.69,102.56,330.51,113.24,322.83Z"/><path class="cls-12" d="M88.19,360.79c6.09,3,13.31,0,19.43-2.89l8.82-4.24c2.12-1,4.45-2.28,5.13-4.53.79-2.63-1-5.27-2.8-7.38-5.88-7.05-13-14.11-22.09-15.33a20.75,20.75,0,0,0-17.4,6C76,335.85,71,344.63,74.63,349c1.61,1.95,4.6,3.42,6.43,5.41C83.23,356.76,85.26,359.34,88.19,360.79Z"/><path class="cls-12" d="M99.7,327c5.81-5.71,9.84-13.51,9.9-21.65a3.25,3.25,0,0,0-.88-2.7,3.47,3.47,0,0,0-1.61-.54,183.77,183.77,0,0,0-19.59-1.95,13.42,13.42,0,0,0-4,.24,11,11,0,0,0-5.09,3.49A24.83,24.83,0,0,0,72,321.78c.28,4.84,3.16,15.45,9.24,15.91C87.12,338.13,95.8,330.8,99.7,327Z"/><path class="cls-12" d="M78.77,315.54a41.84,41.84,0,0,0,5.45-8.17c4.37-9.53,1-20.64-2.36-30.57A4.61,4.61,0,0,0,80,274a4,4,0,0,0-2.43-.23c-4.77.68-8.94,3.47-12.93,6.18a26.6,26.6,0,0,0-6.22,5.24c-2.82,3.59-3.6,8.32-4.28,12.84a17.71,17.71,0,0,0-.13,6.84,13.52,13.52,0,0,0,3.48,5.84A28.58,28.58,0,0,0,68.46,318C73.71,320,75.37,319.84,78.77,315.54Z"/><path class="cls-12" d="M42.65,324.3A18.81,18.81,0,0,1,30,316.06c-3-4.75-3.45-10.63-3.55-16.25-.09-5.34.05-10.69.43-16a4.44,4.44,0,0,1,.56-2.22c.88-1.3,2.77-1.32,4.33-1.12a49.86,49.86,0,0,1,32.41,18.32c2,2.49,3.74,5.33,3.87,8.5a12.12,12.12,0,0,1-3.73,8.61C58.62,321.72,50.93,325.7,42.65,324.3Z"/><path class="cls-12" d="M18.43,333a24.85,24.85,0,0,0-4.58,7.1A183,183,0,0,0,6.71,357a5.32,5.32,0,0,0-.43,3.4,4.63,4.63,0,0,0,2.39,2.38c4.34,2.33,9.51,2.38,14.44,2.25,8.59-.23,17.42-.91,25.18-4.6a8.33,8.33,0,0,0,2.82-1.91c1.29-1.49,1.53-3.61,1.55-5.58.06-6.83-2.11-19.55-9-23.15S23.88,327.57,18.43,333Z"/><path class="cls-12" d="M14.05,325.07c-2.34-2.73-3.43-6.27-4.47-9.71l-2.79-9.29c-.24-.78-.43-1.76.18-2.31a2.19,2.19,0,0,1,1.52-.38l10.75,0c6.1,0,12.43,0,18,2.6,9.46,4.44,12.59,17.29,2.6,23.3C33,333.35,19.08,331,14.05,325.07Z"/><path class="cls-11" d="M31.43,369.25c.84,7.93,5.08,15.29,10.9,20.74a5.83,5.83,0,0,0,2.55,1.62c1.6.36,3.17-.56,4.54-1.45q9-5.82,17.53-12.18c3.07-2.27,6.34-5,6.87-8.77.37-2.67-.73-5.29-1.84-7.75a28.34,28.34,0,0,0-4.43-7.58c-3.62-4-9.1-5.67-14.3-7.14-5.49-1.55-12.35-3.26-16.09,2.15C33.13,354.72,30.68,362.16,31.43,369.25Z"/><path class="cls-12" d="M67.51,375.25c6.17,4.61,13.67,7.06,21.13,9a2.92,2.92,0,0,0,1.75.07c.84-.32,1.18-1.3,1.41-2.17a147.65,147.65,0,0,0,3.32-19.54c.47-3.79.91-7.76-.47-11.32a15.94,15.94,0,0,0-5.87-7,16.46,16.46,0,0,0-9.11-3.3c-4.44-.05-8.53,2.33-12.13,4.93a78.92,78.92,0,0,0-8.14,6.81c-2.88,2.76-3.18,4-2.19,7.91C58.7,366.52,62.69,371.65,67.51,375.25Z"/><path class="cls-12" d="M93.42,318.45a14,14,0,0,1,5.75,2.71q5.67,3.88,11,8.25c1.18,1,2.43,2.12,2.47,3.63.06,2-1.94,3.33-3.69,4.26l-10,5.35c-2.45,1.31-5,2.65-7.78,2.74-3.47.12-6.67-1.73-9.66-3.52-4.63-2.78-11.52-8.65-6.5-14.3C78.48,323.72,88.29,317.71,93.42,318.45Z"/><path class="cls-12" d="M42.51,369.36c1.9,6.71,7.21,11.79,11.34,17.41,1.45,2,3.4,4.34,5.81,3.81,1.4-.32,2.38-1.56,3.24-2.72l5.64-7.62c2.64-3.57,5.33-7.22,6.67-11.45a20.44,20.44,0,0,0,.25-11.47,13.06,13.06,0,0,0-2.33-4.83c-3.24-4-9.06-4.77-14.22-4.46-4.82.29-10.69.49-13.68,4.75A20.51,20.51,0,0,0,42.51,369.36Z"/><path class="cls-13" d="M68.52,346.76c-.47,1.34-.92,2.92-.13,4.1s2.77,1.37,4.36,1.25A125.35,125.35,0,0,0,95,348.38a2.09,2.09,0,0,0,.86-.38,1.56,1.56,0,0,0,.43-.81c.39-1.7-.78-3.32-1.89-4.67l-9.74-11.89c-1-1.21-2.12-2.5-3.66-2.75-1.7-.27-3.32.82-4.51,2.06C72.15,334.45,70.54,341,68.52,346.76Z"/><path class="cls-13" d="M89.17,324.06c-1.16,2.26-2.72,4.73-5.23,5.15-2.1.35-4.1-.89-5.87-2.07-2.77-1.86-5.66-3.84-7.19-6.8a10.12,10.12,0,0,1-.14-8.87c1.67-3.49,5.27-5.73,9-6.69s7.67-.81,11.53-.65c5.78.24,5.62,1.82,3.75,6.75A127.13,127.13,0,0,1,89.17,324.06Z"/><path class="cls-13" d="M57,355a7.76,7.76,0,0,1-3,4.64,8.83,8.83,0,0,1-2.89,1,195.71,195.71,0,0,1-22,3.46,2.09,2.09,0,0,1-1.4-.18A1.92,1.92,0,0,1,27,362.5c-.46-3.57,1.33-7,3.05-10.16l5.52-10.08a18.59,18.59,0,0,1,3.58-5.08,10.26,10.26,0,0,1,11.07-1.36C57.2,339.17,58.94,348.26,57,355Z"/><path class="cls-13" d="M37.1,326.09c-2.3-1.33-3.33-4.08-4-6.66a60.83,60.83,0,0,1-2-16.56c0-1.72.25-3.68,1.63-4.71s3.67-.59,5.47,0l6.53,2.14c5.1,1.68,10.75,3.84,12.93,8.74a19.39,19.39,0,0,1,1.26,5.66c.62,5.2-2.39,8.46-7.13,10.17C47.91,326.27,40.82,328.25,37.1,326.09Z"/><path class="cls-13" d="M51.11,302.51a18,18,0,0,1,3-5.75,61.47,61.47,0,0,1,15-14.83c2.46,1.65,3.88,4.44,5,7.16a91.61,91.61,0,0,1,3.9,10.81C84.62,322.43,47.85,315,51.11,302.51Z"/><path class="cls-13" d="M55.17,363c5,5.06,10.15,10.17,16.16,14.05a2,2,0,0,0,1.44.45c.75-.15,1-1,1.22-1.78q2.36-10.15,4.7-20.3a12.07,12.07,0,0,0,.46-4.46c-.43-3-3.05-5.25-5.92-6.15-4.63-1.45-14.36-1.29-18,2.44A11.32,11.32,0,0,0,55.17,363Z"/><path class="cls-14" d="M52.85,323.14c-1.55-3.55-1.09-7.71.38-11.29s3.85-6.7,6.21-9.76a2,2,0,0,1,1.08-.85,1.89,1.89,0,0,1,1.28.46A58.92,58.92,0,0,1,70,308.43a19.7,19.7,0,0,1,4.72,6.36,8.6,8.6,0,0,1-.29,7.68c-1.42,2.27-4.1,3.47-6.74,3.9C63,327.13,55.16,328.43,52.85,323.14Z"/><path class="cls-14" d="M28.72,328.06c-1.77.89-3.75,2.08-4,4.05-.33,2.55,2.43,4.3,4.77,5.37l8.25,3.76c3.41,1.55,7.18,3.14,10.78,2.11,7.68-2.19,11.07-17.5,6.34-23.56C49.94,313.49,33.84,325.46,28.72,328.06Z"/><path class="cls-14" d="M56.43,354.3a7.6,7.6,0,0,0,2,1.55l21.59,12.91a2.83,2.83,0,0,0,1.48.55,2.16,2.16,0,0,0,1.87-1.85,8,8,0,0,0-.22-2.74c-1.28-7.55,3.44-15.71.85-22.88a7.39,7.39,0,0,0-3-3.94,8.55,8.55,0,0,0-4.06-1c-6-.3-12.73,2.46-17.58,6C56.29,345.12,53.58,350.91,56.43,354.3Z"/><path class="cls-15" d="M48.29,336.63c-.39,3.09-.66,6.18-.79,9.28a10.29,10.29,0,0,0,.23,3.34,5,5,0,0,0,4.94,3.42,11.58,11.58,0,0,0,6.08-2.38c1.89-1.27,3.67-2.79,5.64-3.88s4.18-2,4.88-4.2c.61-1.92-.34-3.87-1.39-5.36C63.78,331.06,50,323.11,48.29,336.63Z"/><path class="cls-15" d="M70.27,326.67a8,8,0,0,1,.71-5.88c1.48-2.26,4.38-2.82,7-3.07q3.58-.35,7.2-.39a25.25,25.25,0,0,1,7.7.81c2.05.63,4.24,2.09,4.37,4.34a5.59,5.59,0,0,1-.63,2.62c-1.65,3.59-4.77,6.2-8,8.2-3.1,1.89-8.68,4.88-12.28,3C73.3,334.71,70.93,329.9,70.27,326.67Z"/><path class="cls-12" d="M60.65,320.65a6.82,6.82,0,0,0-4.3,2.74c-1.42,2.23-.91,5.18-1.75,7.69L61,336.32a16.85,16.85,0,0,0,5.33,3.34,5.77,5.77,0,0,0,5.9-1.13,13.42,13.42,0,0,0,1.81-3.23c1-1.95,2.57-3.77,2.56-6a6.88,6.88,0,0,0-1.79-4.19C71.17,320.66,66.13,319.41,60.65,320.65Z"/><path class="cls-11" d="M67,322.27c1.78.4,2.58,2.55,4.29,3.15.92.32,2,.17,2.77.76a3.16,3.16,0,0,1,.88,2.4c.1,1.63.11,3.5-1.17,4.57a12.17,12.17,0,0,1-3,1.31c-.62.28-1.18.68-1.82.92a5.23,5.23,0,0,1-3.67-.16,15.37,15.37,0,0,1-3.22-1.85c-1.64-1.14-1.22-6.13-.4-7.63S65,321.82,67,322.27Z"/><path class="cls-16" d="M300.69,551.07c.63-7.62,1.23-15.52-1.39-22.71-1.79-4.88-5-9.1-7.82-13.44a125.55,125.55,0,0,1-15.36-32.81,8.69,8.69,0,0,0-1.75-3.67c-2.61-2.71-7.64-.5-8.95,3s-.12,7.43,1.09,11q6.36,18.75,13.67,37.17C273.92,517.37,267.61,505,264,491.75s-4.49-27.68.17-40.62c1.2-3.33,2.3-7.95-.8-9.62-2.68-1.45-5.77,1-7.67,3.37a61,61,0,0,0-12.89,43.45c.68,7,2.39,14.82-1.75,20.5a77.25,77.25,0,0,1-2.65-67c1.87-4.22,3.26-10.68-1.12-12.15a5.85,5.85,0,0,0-3.39.08c-4.84,1.39-8,6.06-9.77,10.77s-2.55,9.78-4.8,14.28c-3.63,7.25-10.61,12.17-15.55,18.6-5.94,7.74-8.74,17.37-11.41,26.75a16.77,16.77,0,0,0,.45,13.25l24.72,72.11a189.65,189.65,0,0,0,7.56,19.65c2,4.28,4.38,8.42,6,12.88,1.89,5.32,2.64,11,3.38,16.57,4.94,37.39,5,106.14,9.93,143.52.32,2.42.8,5.12,2.79,6.53a8.53,8.53,0,0,0,4.92,1.11c16.73.21,42.77-7.21,57.14-15.79,1.84-1.1,3.75-2.39,4.54-4.38.72-1.83.36-3.89,0-5.82-4-19.54-14.83-67-19.09-86.48a273.21,273.21,0,0,1-6.16-66.93c.15-4.65-.36-10.38,1.41-14.77,1.4-3.45,4.09-6.3,5.45-9.94C299,572,299.83,561.37,300.69,551.07Z"/><path class="cls-3" d="M270.55,635.29c3.3-.17,6.52-1.21,9.82-1.38,2.4-.13,4.93-.23,7.07.85.69.34,1.58.78,2.14.25a1.73,1.73,0,0,0,.38-1c.23-1.45.47-2.91.7-4.37a11,11,0,0,0,.22-2.74,14.42,14.42,0,0,0-.75-3,25.24,25.24,0,0,1-1-5.77,3.11,3.11,0,0,0-.49-1.86,2.91,2.91,0,0,0-2.26-.7c-6.07-.12-12.29-.15-18.05,1.81-2.84,1-6.08.64-9.08.73a4.83,4.83,0,0,0-2,.27c-1.5.75-.88,4.67-.5,6.31.56,2.51.92,10.57,3.59,11.66,1.17.48,2.76-.11,3.91-.34A43,43,0,0,1,270.55,635.29Z"/><path class="cls-2" d="M225,625.29a21.68,21.68,0,0,0,6.9,21.19c3.9,3.3,9.25,5.13,14.24,4a21.18,21.18,0,0,0,6.53-2.92,25.44,25.44,0,0,0,4.92-3.9c5.4-5.69,6.34-14.91,2.8-21.91-3.21-6.33-11.78-13.09-19.32-12.23S226.74,618.26,225,625.29Z"/><path class="cls-3" d="M226.28,625.63a20.17,20.17,0,0,0,6.42,19.71c3.63,3.07,8.61,4.77,13.25,3.74a19.51,19.51,0,0,0,6.07-2.72,23.63,23.63,0,0,0,4.58-3.62c5-5.3,5.9-13.88,2.6-20.39-3-5.89-10.95-12.17-18-11.38S227.88,619.09,226.28,625.63Z"/><path class="cls-2" d="M257.35,616.37a1.16,1.16,0,0,0,.52,2.23c2-.17,2.43-.28,3.27,1.19.13.39.24.83.37,1.29a52,52,0,0,1,1.2,5.54c.24,1.53.42,3.06.54,4.6a16.06,16.06,0,0,1,.18,2.84,2.89,2.89,0,0,1-1.56,1.66,1,1,0,0,0-.62.75.61.61,0,0,0,0,.56,1,1,0,0,0,1.37.73c1.49-.64,2.81-.85,3.14-2.52a13.77,13.77,0,0,0-.13-4.67,66.59,66.59,0,0,0-1.29-6.76C263.42,619.5,262.87,614.3,257.35,616.37Z"/><path class="cls-2" d="M241.94,630.23a1,1,0,0,0,1.05,1.59A1,1,0,0,0,241.94,630.23Z"/><path class="cls-2" d="M242.12,630.4a65.74,65.74,0,0,0-8.29-2,.19.19,0,0,0-.08.37c2.73.8,5.49,1.5,8.23,2.27C242.4,631.18,242.53,630.53,242.12,630.4Z"/><path class="cls-2" d="M247.38,616.83c-1.07,4.64-3.15,9.23-4.82,13.68-.1.26.28.47.4.2,2-4.5,3.16-9.14,4.8-13.75A.2.2,0,1,0,247.38,616.83Z"/><path class="cls-3" d="M562.05,421.25c1.63-9.45,3.68-19.82,9.47-26.09,6.83-7.39,17.35-7.4,25.24-5.63,67.74,15.2,135.09,26.7,202.84,41.89,6.62,1.48,13.81,3.43,17.51,10.65,4.43,8.64,2.18,21.33-.2,32.44-6.35,29.65-13.7,64.31-20,94-1.12,5.25-3.54,25.34-7.31,28.92-10,9.54-20.73,4-33.52,1.65-58.85-10.79-128.12-27.19-186.93-38.2-12.7-2.38-26.46-5.57-30.3-14.94-2.74-6.66,2.66-18.11,3-27.12C542.71,490.26,555.84,452.49,562.05,421.25Z"/><path class="cls-17" d="M573.57,526.82c-1.34,5.76-2.65,11.85-.33,17.56,4.48,11,19.8,15.57,33,18.12,49.07,9.49,95,20,146.74,29.82,7.74,1.47,20.14,5.63,27.23,3.09s9.1-9.27,10.77-15.75c6.74-26.07,8.92-42.78,12.89-64.39q5.24-28.47,10.48-57a34.22,34.22,0,0,0-.45-10.81c-2.18-9.56-14.64-11.43-25.67-13.77C742.11,424,696,414.38,649.94,404.24c-13.33-2.94-29-4.95-41.28,1-15.75,7.63-15.76,38.57-19.14,53.08Q581.56,492.56,573.57,526.82Z"/><path class="cls-16" d="M743.77,793.74a6.93,6.93,0,0,0,1.11,3.8c1.14,1.41,3.15,1.7,5,1.86a293.36,293.36,0,0,0,54.24-.11,2.42,2.42,0,0,0,2.58-3.29c-1.71-19.42-7.74-38.17-11.28-57.35-5.91-32-5-65.47-15.68-96.21a276.6,276.6,0,0,0-37.24,5.4c-5.62,1.22-6.6-2.3-7.4,3.28-.86,5.88-.31,16.53,0,22.48q2.15,38.79,5.14,77.55Q741.85,772.45,743.77,793.74Z"/><path class="cls-16" d="M722.22,499.64a8.51,8.51,0,0,1,3.11-2.8c1.87-.81,4-.31,6,.19l11,2.84c3.09.79,6.26,1.62,8.87,3.46,2.1,1.49,3.71,3.55,5.64,5.25,2.66,2.35,5.86,4,8.91,5.78A78.23,78.23,0,0,1,783,528.14a18.71,18.71,0,0,1,4.26,6.23c2.59,7.32-3.29,14.75-4.55,22.41-.5,3-.28,6-.65,9s-1.51,6.12-4,7.86c-2.91,2-6.82,1.65-10.33,1.06a167.38,167.38,0,0,1-36.12-10.34,5,5,0,0,1-1.72-1c-1.55-1.54-.61-4.13.23-6.15a36.38,36.38,0,0,0-6.73-37.86c-2.33-2.52-6.85-6.16-6.68-10C716.82,506.21,720.38,502,722.22,499.64Z"/><path class="cls-3" d="M815.35,509c-37.09,4.87-74.21,10-111.05,16.54q-7.75,1.37-15.48,2.85c-7.62,1.45-4.35,12.9,3.2,11.58,11.11-1.93,22.25-3.67,33.4-5.33,9.48-1,18.91-2.52,28-3.74,12.31-1.66,24.93-3,37.39-4.81q12.25-1.22,24.51-2.37c4-.39,7.31-3.11,7.36-7.36C822.75,512.79,819.29,508.49,815.35,509Z"/><path class="cls-3" d="M683.9,531q-4.54,3.63-9.33,6.93c-.43.3-.92.72-.81,1.23a.89.89,0,0,0,.64.63,2.69,2.69,0,0,0,.94.08c4.68-.11,9.35.64,14,.51a6.11,6.11,0,0,0,1.53-.19,1.53,1.53,0,0,0,.81-.5,1.66,1.66,0,0,0,.25-1.2,26.44,26.44,0,0,0-.7-2.61c-.32-1.51,0-3.13-.51-4.58a8.7,8.7,0,0,0-1.29-2.2c-.3-.4-.62-.82-1.15-.77a4.82,4.82,0,0,0-1.57.66A20,20,0,0,0,683.9,531Z"/><path class="cls-3" d="M672,539.61a.24.24,0,0,0-.13.09.22.22,0,0,0,0,.14.84.84,0,0,0,.11.41.5.5,0,0,0,.17.21.68.68,0,0,0,.54,0c.56-.18,1.13-.38,1.68-.59.09,0-.2-.72-.24-.79a.33.33,0,0,0-.44-.17A17.51,17.51,0,0,0,672,539.61Z"/><path class="cls-18" d="M717.63,527.44a.72.72,0,0,1,.54,0,.75.75,0,0,1,.2.3,3.69,3.69,0,0,1,.25,1,.82.82,0,0,1,0,.49,1,1,0,0,1-.68.43c-1.22.35-2.46.6-3.7.84a62.77,62.77,0,0,1-7.45,1.19,1.19,1.19,0,0,1-.77-.12,1,1,0,0,1-.36-.54c-.21-.68-.2-1.27.53-1.48.91-.26,1.85-.45,2.77-.65,1.84-.4,3.69-.73,5.54-1Z"/><path class="cls-16" d="M782.74,544.71a19.93,19.93,0,0,1-3,4.42c-4.62,5-11.93,6.21-18.19,4.2a20.64,20.64,0,0,1-6.51-.65,18.34,18.34,0,0,1-10.43-2.87c-1.22,5.31-3,11.65-8.25,12.93-4.49,1.1-8.71-2.33-12.06-5.51l-6.51-6.16a12.86,12.86,0,0,1-3-3.65c-1.88-3.94.53-8.44,2.09-12.52a32.62,32.62,0,0,0,.88-20.5,11.06,11.06,0,0,0-3.16-5.63c-1.68-1.4-4.35-1.81-6-.41a7.44,7.44,0,0,0-1.92,3.28l-13.14,35.57a17.61,17.61,0,0,0-1.43,5.85c-.06,4.82,3.68,8.71,7,12.18,11.79,12.21,21.88,26.23,28.46,41.88a99.56,99.56,0,0,1,8,36.7c.07,4.67-1.35,9.21,2.88,12.14,3.55,2.47,10.39,3.45,14.51,4.87a34.91,34.91,0,0,0,20.09.78,9.73,9.73,0,0,0,5.12-2.7c1.69-2,1.83-4.79,1.83-7.39.06-21.08-2.76-42.27,0-63.17C781.78,573.79,786.32,558.9,782.74,544.71Z"/><path class="cls-3" d="M615.57,384.56a11.13,11.13,0,0,0-3.65-1.54,7.07,7.07,0,0,0-2.06-.88c-4.61-1.21-10.63-2.5-15.4-2.05a3.41,3.41,0,0,0-3.3,3.91,2.2,2.2,0,0,0,1.33,2.28h0a3.74,3.74,0,0,0,1.44.65,42.19,42.19,0,0,0,6,2.05,3.57,3.57,0,0,0,2.57,4.56l6.6,1.59a3.82,3.82,0,0,0,2.62-.27,3.89,3.89,0,0,0,4.47-3.74A4.21,4.21,0,0,0,615.57,384.56Z"/><path class="cls-19" d="M596.3,723.35c-15.57-4.34-31.16-9.09-46-15.54l-12.24-.2c18,9.09,37.46,15.15,56.87,20.57C598.07,729,599.4,724.22,596.3,723.35Z"/><path class="cls-19" d="M486,707.22a33.17,33.17,0,0,1-5.1-.2l-1.58,0q-18.24,8.93-37.24,16.22c-3,1.14-1.69,6,1.33,4.83a473,473,0,0,0,46.17-20.63A32.1,32.1,0,0,1,486,707.22Z"/><path class="cls-20" d="M818.75,854.22c-2-27.66,3.12-57.63-5.12-84a19.69,19.69,0,0,0-3-6.58c-5-6.25-21.45-2.2-29.24-2.06-8.68.17-27.06-2.78-35.7-3.83-34.43-4.18-12.11,31.37-17.93,54.55-1.43,5.7-3.29,11.29-4.29,17.09-1.71,9.91-.85,20.08-1.15,30.15h96.85C819,857.75,818.88,856,818.75,854.22Z"/><path class="cls-3" d="M721.87,768.17c-42.06-32.61-146.66-1.94-195-17.68-22.74-7.39-44.24-26.06-67.49-21.5-20.81,4.07-36.46,25.93-57,31.76-15.7,4.47-33.09-.84-47.75,7.24-21.54,11.87-44.72,71.34-19.39,91.52H736.53C714.31,831.23,750.36,790.26,721.87,768.17Z"/><path class="cls-20" d="M357.37,858a73.58,73.58,0,0,1-8.46-32.14,62.11,62.11,0,0,0-.41-9.7A50.42,50.42,0,0,0,345,805.58L332.6,775.82c-2.56-6.16-5.83-13.11-11.44-15.84-4.49-2.18-8.93-.86-13,.38a211.35,211.35,0,0,1-61.31,9.11c-8.8,0-14.48-.36-16,10-1.41,9.94,2.23,21.74,5.6,32.11q7.77,24,15.56,47.9H358.19C357.91,859,357.64,858.5,357.37,858Z"/><path class="cls-21" d="M555.17,75.07c-4.12,9.43-8.24,17.56-11.23,26.09-3.07,8.78-4.51,18-2.24,27.36,1.64,6.67,7.38,9.72,13,5.94a45.07,45.07,0,0,0,12.28-12.64c7-10.8,11.28-22.9,13.76-35.57a27.37,27.37,0,0,0,.43-3.83c.42-8.12-.64-9.49-8.55-10.69,3.49-3.23,7.17-3.42,11.12-2,4.24,1.56,6.7,4.78,6.39,9.15-.41,5.63-.88,11.47-2.69,16.75-5,14.64-12.64,27.84-24.92,37.63a41.35,41.35,0,0,1-13.08,6.85c-9.9,3.13-16.75-1.95-17-12.28-.13-6,.51-11.93.78-17.9a4.47,4.47,0,0,0-.82-3c-.9,1.37-1.81,2.74-2.71,4.12-4.33,6.68-8.24,13.68-13.11,19.94-4.7,6.05-10.72,10.72-19.07,10.7-5.2,0-8.09-2-10-7-2.28-5.92-1.32-11.84.28-17.66,4.16-15.13,11.47-28.46,23-39.24,1.22-1.15,2.69-2,3.93-3.8-2.2.25-4.4.49-6.6.76-4.93.6-9.91.93-14.77,1.89-6.48,1.28-11.06,4.94-12.16,12.1-3.13-3.88-3.64-7.31-.45-10.8,2.47-2.7,5.94-5.76,9.27-6.17,11.48-1.42,23.1-1.75,34.66-2.5l.45,1.58c-1.2,1.07-2.42,2.11-3.59,3.21-15.17,14.33-23.23,32.09-25.18,52.74a11.68,11.68,0,0,0,.85,5c1.3,3.52,4.58,5,7.87,3.31a31.17,31.17,0,0,0,8.17-6A103.53,103.53,0,0,0,535.41,94c2.36-6.45,5.32-12.77,11.74-16.27C549.51,76.41,552.31,76,555.17,75.07Z"/><path class="cls-22" d="M691.31,116.79a7.3,7.3,0,0,1-.27,2.47c-4,8-8.7,15.57-16.14,20.7-2.2,1.51-6.41,2.24-8.51,1.11-1.78-.95-3-5.37-2.46-7.81,1.59-7.19,4.29-14.13,6.31-21.23.61-2.15.46-4.51.65-6.78-2.49.56-5.37.5-7.4,1.8-7.54,4.8-10.7,12.66-13.33,20.76-1.49,4.58-2.95,9.17-4.43,13.8h-8.89c1.19-3.52,2.28-6.77,3.38-10l-1.34-1.13c-1.1,1.46-2.14,3-3.31,4.37-6.16,7.47-18.15,10.87-26.74,7.62-4.6-1.74-6.26-4.25-5.74-8.72.43-3.78,2.44-5.06,6.48-4.15.09.26.32.58.24.79-1.21,3.19-3.08,6.46,1,9.08,2.7,1.75,8.22.8,10.56-1.76a8.73,8.73,0,0,0,.49-11,82.91,82.91,0,0,0-6.47-6.8c-4.75-4.87-5-12-.65-16.51,4.86-5,15.06-6.16,19.1-1.78a7.32,7.32,0,0,1,1.1,6.42c-.82,1.95-3.36,3.29-5.38,4.52-.54.33-1.92-.74-2.92-1.17.47-.9.95-1.8,1.41-2.71q1.29-2.58,2.57-5.16c-1.87-.7-4.06-2.37-5.56-1.89-2.43.78-5.46,2.57-6.27,4.69-.71,1.85.87,5,2.24,7.09,1.19,1.79,3.54,2.79,5.32,4.21,6.7,5.34,7.58,9.91,3.45,17.36a18.75,18.75,0,0,0-.78,2.22,20.85,20.85,0,0,0,10.59-10.24c4.25-8.32,7.88-17,11.41-25.65,4.26-10.44,8.37-21,15.73-29.7,2.79-3.32,6-6.11,10.81-6.11,4.09,0,6,1.79,5.16,5.83A27.79,27.79,0,0,1,679,80.77c-5.56,8.4-11.53,16.51-17.37,24.78.91-.47,2.1-1.18,3.36-1.74,2.95-1.34,5.83-3.06,8.93-3.79,5.14-1.22,8.1,2,6.53,7.06-1.68,5.43-3.88,10.7-5.76,16.08a30,30,0,0,0-1.75,6.59c-.15,1.36.28,3.58,1.17,4.05a4.48,4.48,0,0,0,4.21-.84c3.6-4,6.88-8.29,10.2-12.54a33.73,33.73,0,0,0,2.26-3.87Zm-34.42-11.94,1.21.67c1.48-1.83,3.13-3.56,4.43-5.52,5.34-8,10.76-16,15.72-24.33,1.33-2.22,1.12-5.37,1.62-8.09l-2.18-.72C666.46,77.12,663.37,91.93,656.89,104.85Z"/><path class="cls-23" d="M373.19,102.83c-12.34,2.09-23.32,14.88-23,27.23.1,4,2.17,5.54,5.35,3.13A52.34,52.34,0,0,0,365.62,123c4.41-5.9,8.17-12.28,12.21-18.45,2.44-3.75,5.85-4.56,9.83-3.43-3.27,7.17-6.59,14.21-9.68,21.35a29.42,29.42,0,0,0-2,7.38c-.19,1.25.25,3.41,1,3.76,1.11.51,3.39.26,4.14-.59,3.67-4.11,7.12-8.43,10.4-12.86,1.42-1.92,2.21-4.3,3.38-6.41,1.72-3.1,3.39-5.78.1-9.33a4.66,4.66,0,0,1,2.46-7.53c1.24-.21,3.61.77,3.94,1.74,2,5.75,1.83,5.8,7.07,8.14-2,.65-3.42,1.6-4.76,1.46-3.34-.33-4.44,1.5-6,4.07-5,8.27-10.17,16.44-15.85,24.24-2.61,3.6-6.33,7.07-11.62,5.09-2.79-1-3.83-7.84-2.45-13.14.47-1.84.92-3.67,1.38-5.51l-1.08-.5a46,46,0,0,1-3.18,4.69c-3.61,4.17-7.19,8.4-11.11,12.28a7.87,7.87,0,0,1-9.1,1.76c-3.61-1.66-3.41-5.32-3.76-8.54-.14-1.37.21-2.79-.47-4.7-.94,1.21-1.92,2.4-2.82,3.64-5,6.84-11.34,11.21-20.11,11-7-.18-12.32-5.13-12.67-12-.57-11.35,8.75-28,23.46-29.53,5.07-.54,9.55,1.49,11.1,5.35,1.47,3.65-.13,8.22-4.28,11.15-5.95,4.22-12.54,4.84-19.9,2.74-2,4.63-2.92,9.39-1.16,14.31,1.28,3.59,4.66,5.21,8.75,4.11,9.54-2.55,15-9.81,19.79-17.76A133,133,0,0,1,352,106.73a15.8,15.8,0,0,1,15.21-6C369.27,101,371.2,102.11,373.19,102.83ZM320,119.52c6.25.08,13.5-5.66,15-10.75,1.07-3.72,0-5.08-3.83-4.94-4.46.17-13.25,7.9-13.36,12.25C317.78,117.42,319.54,118.81,320,119.52Z"/><path class="cls-24" d="M471.71,116.44c.24.47.37.6.36.72-.6,7.11-13.09,22.7-19.69,24.59-4.72,1.36-8.24-.76-7.46-5.57,1.24-7.64,3.68-15.09,5.64-22.61a18.07,18.07,0,0,0,.94-2.38c.22-2,.23-4,.32-6-2.31.24-5.42-.37-6.79.9-3.68,3.42-7.39,7.23-9.66,11.63a94.93,94.93,0,0,0-7.06,19.17c-1.13,4.29-3.16,5.52-7.11,4.88a33.44,33.44,0,0,0-3.45-.18l3.52-10.5c-2.94,2.51-6,5.7-9.62,8-2.38,1.54-6.48,3.37-8.16,2.34-2.14-1.31-3.79-5.43-3.61-8.21.69-10.71,4.87-20.39,10.72-29.3,2.41-3.67,6.16-3.58,10.11-3.13-4.81,10.65-12,20.34-12.19,32.51l1.08,1.36c2.19-1.05,4.84-1.62,6.49-3.23a46.26,46.26,0,0,0,14.38-30.19c7.53-1.85,8.68-.9,7.91,7.34,2.08-1.57,3.65-3.16,5.55-4.09,3.27-1.6,6.64-3.31,10.15-4,5.67-1.16,8.17,1.53,6.84,7.28-.95,4.13-2.82,8-4.17,12.09a78,78,0,0,0-2.74,9.39c-.29,1.46.43,3.11.7,4.67,1.67-.47,3.89-.43,4.9-1.51,3.38-3.62,6.36-7.62,9.4-11.54A46.53,46.53,0,0,0,471.71,116.44Z"/><path class="cls-25" d="M303.47,129.19c.39,4.77-6.39,11.61-11.43,11.73-9.68.23-19.36.55-29,.81-1.42,0-2.85,0-4.28,0h-2.56a30.34,30.34,0,0,1-3.6-.17h-.06c-2-.28-3.11-.94-3.47-2.43a11.79,11.79,0,0,1,.32-4.82,132.84,132.84,0,0,1,4.15-15.5c.07-.22.14-.43.22-.65,1.11-3.32,2.38-6.59,3.78-9.78,1-2.38,2.15-4.73,3.29-7.08a1.47,1.47,0,0,1,.1-.22c4.17-8.63,8.85-17.14,13.5-26.15.32-.63.66-1.28,1-1.92l-.2,0,2-2.42c.15,0,.31,0,.47,0,3.75,0,7.5.09,11.24.09-.26.34-.51.69-.77,1l-.32.43a168.21,168.21,0,0,0-14.2,23.6l-.06.12c-3.85,7.69-7.26,15.65-10.43,23.74a45.45,45.45,0,0,0-2.58,9.91,0,0,0,0,0,0,0c-.11.67-.19,1.36-.26,2-.45,4.57,2.07,7.07,6.66,6.75l.35,0c5.13-.36,10.31-.64,15.39-1.31,2.49-.32,4.95-.73,7.38-1.28A23.64,23.64,0,0,0,296,133.4C298.61,132,301.07,130.42,303.47,129.19Z"/><path class="cls-26" d="M600.68,101.32c-3,6.23-6.06,12.42-8.83,18.76a45.08,45.08,0,0,0-2.8,9.36c-.27,1.33.2,3.78,1,4.14a5,5,0,0,0,4.54-.7,115,115,0,0,0,8.81-10.26c1.39-1.74,2.38-3.79,4.25-5.46-.39,1.38-.42,3-1.22,4.11Q600,130,593.16,138.42a11.77,11.77,0,0,1-4.19,2.87c-4.4,2.05-7.43.27-8.21-4.59-1.09-6.75,1.08-13,3.29-19.12a71.64,71.64,0,0,1,5.7-11.88C592.51,101,595.47,100.05,600.68,101.32Z"/><path class="cls-27" d="M604,89c.21-6.42-9.76-6.37-9.65,0C594.23,95.43,604.38,95.13,604,89Z"/><path d="M708.08,147.32a2.82,2.82,0,0,1,2.65-2,62.08,62.08,0,0,1,6.25,0,4.26,4.26,0,0,1,4.18,4.53,7.91,7.91,0,0,1-6.75,8,9.71,9.71,0,0,1-4.19-.17,1.66,1.66,0,0,1-1.29-2.33,46.3,46.3,0,0,1,3.4-8.29c.17-.35.35-.69.59-1.18a8.07,8.07,0,0,0-4.8,1.57Zm4.37,10.07a13.92,13.92,0,0,0,2.61-.7,7.46,7.46,0,0,0,4.46-6.37c.22-2.25-.66-4.09-3.11-4.56-.6-.12-1.35-.43-1.8.35a35.28,35.28,0,0,0-3.86,9C710.21,157.28,710.81,157.25,712.45,157.39Z"/><path d="M701.21,145.88a6.79,6.79,0,0,0-4.81,1.66,2.7,2.7,0,0,1,2.6-2.24,57.58,57.58,0,0,1,6-.07,2.46,2.46,0,0,1,2.57,1.85,3,3,0,0,1-1.66,3.22c-.52.27-1.09.45-1.74.72l.79.22a2.54,2.54,0,0,1,1.52,4,4.59,4.59,0,0,1-1.47,1.44,8.25,8.25,0,0,1-6.36,1c-1.32-.37-1.81-1-1.38-2.32.74-2.25,1.65-4.44,2.55-6.64C700.23,147.73,700.74,146.83,701.21,145.88Zm-.36,5.69a1.85,1.85,0,0,1,2-.77,2.23,2.23,0,0,0,1.64-.53,3.74,3.74,0,0,0,1.34-2,1.86,1.86,0,0,0-1.29-2.51c-1-.33-1.36-.22-1.87.7a36.38,36.38,0,0,0-3.47,8.18,8.1,8.1,0,0,0-.29,1.68.76.76,0,0,0,.86.88c.64,0,1.29,0,1.93,0a3.65,3.65,0,0,0,3.33-3.79c-.05-1.24-1-2.67-2.51-2.08A7.46,7.46,0,0,1,700.85,151.57Z"/><path d="M726.08,150.13a17.47,17.47,0,0,0-4.83-11.74,17.06,17.06,0,0,0-6.81-4.29,18.35,18.35,0,0,0-10-.36l-.06-.39a18.65,18.65,0,0,1,10,.46,17,17,0,0,1,6.8,4.32A17.62,17.62,0,0,1,726.08,150.13Z"/><path d="M725.2,153.61a17.48,17.48,0,0,0-2.67-11.9,16.39,16.39,0,0,0-5.94-5.37,17.08,17.08,0,0,0-9.43-1.88v-.4a17.39,17.39,0,0,1,9.48,2,16.47,16.47,0,0,1,5.91,5.4A17.61,17.61,0,0,1,725.2,153.61Z"/><path d="M723,161.5A17.47,17.47,0,0,0,728.2,150a17,17,0,0,0-1.55-7.91,18.4,18.4,0,0,0-6.57-7.51l.24-.31a18.52,18.52,0,0,1,6.55,7.63,17.17,17.17,0,0,1,1.51,7.91A17.59,17.59,0,0,1,723,161.5Z"/><path d="M719.71,163.33a17.59,17.59,0,0,0,7-10,16.41,16.41,0,0,0,0-8,17.17,17.17,0,0,0-5-8.25l.29-.26a17.34,17.34,0,0,1,4.9,8.35,16.57,16.57,0,0,1,0,8A17.64,17.64,0,0,1,719.71,163.33Z"/><path d="M692.15,154.08a17.53,17.53,0,0,0,6.73,10.77,16.92,16.92,0,0,0,7.43,3.08,18.34,18.34,0,0,0,9.9-1.31l.12.38a18.59,18.59,0,0,1-10,1.22,17.06,17.06,0,0,1-7.42-3.12A17.6,17.6,0,0,1,692.15,154.08Z"/><path d="M692.39,150.82A17.51,17.51,0,0,0,697,162.11a16.49,16.49,0,0,0,6.75,4.3,17,17,0,0,0,9.61.27l.07.39a17.42,17.42,0,0,1-9.69-.37,16.68,16.68,0,0,1-6.73-4.33A17.72,17.72,0,0,1,692.39,150.82Z"/><path d="M693.87,141.82A17.49,17.49,0,0,0,690.42,154a16.87,16.87,0,0,0,2.71,7.58,18.4,18.4,0,0,0,7.62,6.45l-.19.34a18.62,18.62,0,0,1-7.62-6.57,17.11,17.11,0,0,1-2.68-7.6A17.64,17.64,0,0,1,693.87,141.82Z"/><path d="M696.6,139.55a17.5,17.5,0,0,0-5.25,11,16.45,16.45,0,0,0,1.35,7.89,17.1,17.1,0,0,0,6.26,7.3l-.25.31a17.4,17.4,0,0,1-6.23-7.42,16.56,16.56,0,0,1-1.31-7.89A17.65,17.65,0,0,1,696.6,139.55Z"/></g></g></svg>