<svg xmlns="http://www.w3.org/2000/svg" viewBox="0 0 344.46 59.75"><defs><style>.cls-1{fill:#fff;}</style></defs><g id="Layer_2" data-name="Layer 2"><g id="Layer_1-2" data-name="Layer 1"><path class="cls-1" d="M220,10.46c-2.95,6.77-5.91,12.61-8.06,18.74-2.2,6.31-3.24,13-1.61,19.65,1.18,4.8,5.3,7,9.31,4.27A32.5,32.5,0,0,0,228.48,44a71.83,71.83,0,0,0,9.88-25.55,19.76,19.76,0,0,0,.31-2.76c.3-5.83-.47-6.81-6.15-7.67,2.51-2.32,5.16-2.46,8-1.42,3,1.12,4.81,3.44,4.58,6.58-.29,4-.63,8.24-1.93,12-3.59,10.51-9.08,20-17.9,27a29.77,29.77,0,0,1-9.4,4.92c-7.11,2.25-12-1.4-12.2-8.82-.09-4.28.37-8.57.57-12.86a3.24,3.24,0,0,0-.59-2.14c-.65,1-1.31,2-2,3-3.11,4.79-5.92,9.83-9.42,14.33-3.37,4.34-7.7,7.69-13.69,7.68-3.74,0-5.82-1.46-7.19-5-1.64-4.25-1-8.51.2-12.69,3-10.87,8.24-20.44,16.54-28.19A15.89,15.89,0,0,0,191,9.7c-1.57.18-3.16.35-4.73.55-3.54.43-7.12.67-10.61,1.36-4.66.92-8,3.54-8.74,8.69-2.25-2.79-2.62-5.25-.32-7.76,1.77-1.94,4.26-4.14,6.66-4.43,8.24-1,16.59-1.26,24.89-1.8l.33,1.13c-.86.77-1.74,1.52-2.58,2.32C185,20.05,179.17,32.81,177.77,47.64a8.42,8.42,0,0,0,.61,3.59c.94,2.53,3.29,3.63,5.65,2.38a22.52,22.52,0,0,0,5.87-4.29A74.41,74.41,0,0,0,205.82,24c1.7-4.64,3.82-9.18,8.44-11.69A33.14,33.14,0,0,1,220,10.46Z"/><path class="cls-1" d="M317.82,40.43a5.1,5.1,0,0,1-.2,1.77c-2.88,5.73-6.25,11.18-11.59,14.87-1.58,1.09-4.61,1.61-6.12.8-1.28-.69-2.15-3.86-1.76-5.61,1.14-5.17,3.08-10.15,4.53-15.25a26.11,26.11,0,0,0,.47-4.87c-1.79.4-3.86.36-5.32,1.29-5.41,3.45-7.68,9.1-9.58,14.91-1.07,3.29-2.11,6.59-3.18,9.92h-6.38c.85-2.53,1.64-4.86,2.42-7.2l-.95-.81c-.8,1-1.55,2.13-2.38,3.15-4.43,5.36-13,7.8-19.21,5.47-3.31-1.25-4.5-3.06-4.13-6.27.31-2.71,1.75-3.63,4.66-3,.06.19.22.42.17.57-.87,2.29-2.21,4.64.68,6.52,1.94,1.26,5.91.57,7.59-1.26a6.29,6.29,0,0,0,.35-7.92,61.17,61.17,0,0,0-4.65-4.89c-3.41-3.49-3.62-8.64-.47-11.85,3.49-3.56,10.82-4.43,13.72-1.28a5.24,5.24,0,0,1,.8,4.61c-.59,1.4-2.42,2.37-3.87,3.25-.39.23-1.38-.54-2.09-.84.33-.65.68-1.3,1-2l1.85-3.71c-1.35-.5-2.92-1.7-4-1.35-1.75.56-3.92,1.84-4.5,3.36-.51,1.33.62,3.62,1.6,5.09.86,1.29,2.54,2,3.82,3,4.81,3.84,5.45,7.12,2.48,12.48a13.88,13.88,0,0,0-.55,1.59,15,15,0,0,0,7.6-7.36c3.05-6,5.66-12.2,8.2-18.42,3.06-7.51,6-15,11.3-21.34,2-2.38,4.34-4.39,7.76-4.39,2.94,0,4.32,1.28,3.71,4.19a20,20,0,0,1-2.67,6.8c-4,6-8.28,11.86-12.48,17.81.66-.35,1.52-.85,2.42-1.26a36.16,36.16,0,0,1,6.41-2.72c3.7-.88,5.82,1.46,4.7,5.07-1.21,3.9-2.79,7.69-4.14,11.55a22.05,22.05,0,0,0-1.26,4.73c-.1,1,.2,2.58.84,2.91a3.2,3.2,0,0,0,3-.6c2.59-2.87,4.95-5.95,7.33-9a24.82,24.82,0,0,0,1.63-2.79Zm-24.73-8.58.87.48c1.07-1.32,2.25-2.56,3.18-4,3.83-5.78,7.73-11.53,11.29-17.48,1-1.6.81-3.86,1.17-5.82L308,4.56C300,11.93,297.75,22.57,293.09,31.85Z"/><path class="cls-1" d="M89.29,30.4C80.43,31.9,72.54,41.09,72.75,50c.07,2.89,1.55,4,3.84,2.25a37.73,37.73,0,0,0,7.26-7.35c3.17-4.23,5.87-8.81,8.77-13.25,1.76-2.69,4.21-3.27,7.07-2.46-2.35,5.15-4.74,10.21-7,15.34a21,21,0,0,0-1.43,5.3c-.13.89.18,2.45.74,2.7a3.22,3.22,0,0,0,3-.43c2.63-2.94,5.11-6.05,7.47-9.23a42,42,0,0,0,2.43-4.61c1.23-2.22,2.43-4.15.06-6.7a3.35,3.35,0,0,1,1.78-5.41c.88-.15,2.58.56,2.82,1.25,1.43,4.13,1.32,4.17,5.08,5.85-1.42.46-2.46,1.15-3.42,1-2.39-.24-3.19,1.08-4.3,2.92C103.37,43.12,99.63,49,95.56,54.59c-1.88,2.59-4.55,5.08-8.36,3.66-2-.74-2.75-5.63-1.76-9.44.35-1.32.67-2.64,1-4l-.78-.36a32.62,32.62,0,0,1-2.28,3.37c-2.6,3-5.17,6-8,8.82A5.63,5.63,0,0,1,68.86,58c-2.59-1.19-2.45-3.83-2.7-6.14a10.93,10.93,0,0,0-.34-3.37c-.68.87-1.38,1.72-2,2.61C60.22,56,55.65,59.1,49.35,59a9,9,0,0,1-9.1-8.62c-.41-8.15,6.28-20.08,16.85-21.21,3.64-.39,6.86,1.07,8,3.84S65,38.87,62,41c-4.27,3-9,3.47-14.3,2-1.41,3.33-2.09,6.74-.83,10.28.92,2.58,3.35,3.74,6.29,3C60,54.34,63.91,49.12,67.37,43.42A96.22,96.22,0,0,1,74.08,33.2,11.37,11.37,0,0,1,85,28.89,23.23,23.23,0,0,1,89.29,30.4Zm-38.19,12c4.48.06,9.7-4.07,10.75-7.73.77-2.66,0-3.64-2.75-3.54-3.2.12-9.51,5.67-9.59,8.8C49.49,40.88,50.75,41.88,51.1,42.39Z"/><path class="cls-1" d="M160.06,40.18c.18.33.27.43.26.52-.43,5.1-9.4,16.3-14.14,17.66-3.4,1-5.92-.55-5.36-4,.89-5.49,2.64-10.84,4.05-16.24a15.2,15.2,0,0,0,.68-1.71c.15-1.43.16-2.88.22-4.32-1.66.18-3.89-.26-4.87.65A32.37,32.37,0,0,0,134,41.09a68,68,0,0,0-5.07,13.77c-.82,3.08-2.27,4-5.11,3.5-.69-.11-1.41-.07-2.48-.12,1-2.86,1.84-5.51,2.53-7.55a65.37,65.37,0,0,1-6.91,5.78c-1.71,1.11-4.66,2.42-5.86,1.68-1.54-.94-2.73-3.9-2.6-5.9.5-7.7,3.5-14.64,7.71-21,1.72-2.63,4.42-2.57,7.25-2.25-3.45,7.65-8.63,14.61-8.75,23.36l.77,1c1.58-.75,3.48-1.16,4.67-2.31a33.28,33.28,0,0,0,10.33-21.69c5.4-1.33,6.23-.65,5.68,5.27a28.1,28.1,0,0,1,4-2.94,31.56,31.56,0,0,1,7.29-2.89c4.07-.83,5.87,1.11,4.91,5.23-.68,3-2,5.78-3,8.69a53.64,53.64,0,0,0-2,6.75c-.21,1,.31,2.23.5,3.35,1.2-.34,2.79-.31,3.52-1.09,2.43-2.6,4.57-5.47,6.75-8.28A35,35,0,0,0,160.06,40.18Z"/><path class="cls-1" d="M39.21,49.34c.28,3.42-4.59,8.33-8.22,8.42-6.95.16-13.9.4-20.85.58-1,0-2.05,0-3.08,0H5.22a19.11,19.11,0,0,1-2.59-.13h0C1.14,58,.36,57.55.1,56.48A8.59,8.59,0,0,1,.32,53a94.77,94.77,0,0,1,3-11.13c0-.16.1-.31.16-.47.8-2.39,1.71-4.74,2.71-7C6.93,32.68,7.73,31,8.54,29.3a.8.8,0,0,1,.08-.16c3-6.2,6.35-12.31,9.69-18.78.24-.46.48-.92.71-1.38h-.14l1.45-1.74h.34c2.69,0,5.39.07,8.08.07-.19.24-.37.5-.56.74L28,8.38a119.61,119.61,0,0,0-10.2,16.95.35.35,0,0,0-.05.08C15,30.93,12.51,36.66,10.23,42.47a32,32,0,0,0-1.86,7.12v0q-.1.73-.18,1.47c-.33,3.28,1.49,5.07,4.78,4.84h.26c3.68-.26,7.4-.47,11.05-.95,1.78-.22,3.56-.52,5.3-.91a17,17,0,0,0,4.27-1.69C35.71,51.38,37.48,50.22,39.21,49.34Z"/><path class="cls-1" d="M252.71,29.31c-2.12,4.48-4.35,8.93-6.35,13.48a33.15,33.15,0,0,0-2,6.72c-.19,1,.15,2.72.74,3a3.59,3.59,0,0,0,3.26-.51,84,84,0,0,0,6.33-7.36,26.37,26.37,0,0,1,3.05-3.93c-.28,1-.3,2.18-.88,3q-4.64,6.27-9.54,12.33a8.5,8.5,0,0,1-3,2.06c-3.16,1.47-5.34.19-5.9-3.3-.78-4.85.78-9.33,2.37-13.74a50.61,50.61,0,0,1,4.09-8.53C246.84,29.08,249,28.4,252.71,29.31Z"/><path class="cls-1" d="M255.11,20.46c.16-4.61-7-4.57-6.92,0C248.08,25.08,255.37,24.87,255.11,20.46Z"/><path class="cls-1" d="M329.86,10.38a2,2,0,0,1,1.91-1.47c1.49-.05,3-.12,4.49,0a3.06,3.06,0,0,1,3,3.26,5.67,5.67,0,0,1-4.85,5.76,7,7,0,0,1-3-.13,1.19,1.19,0,0,1-.93-1.67,33.12,33.12,0,0,1,2.45-6l.42-.85a5.82,5.82,0,0,0-3.45,1.13ZM333,17.61a10.61,10.61,0,0,0,1.88-.5,5.37,5.37,0,0,0,3.2-4.58,2.7,2.7,0,0,0-2.23-3.27c-.43-.09-1-.31-1.3.25a25.22,25.22,0,0,0-2.77,6.5C331.39,17.53,331.82,17.51,333,17.61Z"/><path class="cls-1" d="M324.93,9.35a4.85,4.85,0,0,0-3.46,1.19,1.94,1.94,0,0,1,1.87-1.61,41.47,41.47,0,0,1,4.32-.06,1.77,1.77,0,0,1,1.85,1.34,2.17,2.17,0,0,1-1.19,2.31c-.38.19-.78.32-1.25.52l.57.15a1.83,1.83,0,0,1,1.09,2.88,3.26,3.26,0,0,1-1.06,1,5.91,5.91,0,0,1-4.57.7c-.94-.27-1.3-.74-1-1.67.53-1.61,1.19-3.19,1.83-4.77C324.22,10.68,324.59,10,324.93,9.35Zm-.26,4.08a1.33,1.33,0,0,1,1.46-.55,1.62,1.62,0,0,0,1.18-.38,2.66,2.66,0,0,0,1-1.43,1.34,1.34,0,0,0-.92-1.81c-.72-.23-1-.15-1.34.51a25.44,25.44,0,0,0-2.5,5.88,6.85,6.85,0,0,0-.21,1.2.55.55,0,0,0,.62.63c.46,0,.93,0,1.39,0a2.62,2.62,0,0,0,2.39-2.72c0-.89-.74-1.92-1.8-1.49A5.52,5.52,0,0,1,324.67,13.43Z"/><path class="cls-1" d="M342.79,12.4A12.58,12.58,0,0,0,339.33,4a12.27,12.27,0,0,0-4.9-3.08,13.3,13.3,0,0,0-7.17-.26l0-.28a13.44,13.44,0,0,1,7.21.33,12.41,12.41,0,0,1,4.89,3.11A12.65,12.65,0,0,1,342.79,12.4Z"/><path class="cls-1" d="M342.16,14.9a12.58,12.58,0,0,0-1.92-8.56A11.85,11.85,0,0,0,336,2.49a12.28,12.28,0,0,0-6.78-1.35V.85A12.41,12.41,0,0,1,336,2.28a12,12,0,0,1,4.25,3.88A12.71,12.71,0,0,1,342.16,14.9Z"/><path class="cls-1" d="M340.55,20.57a12.58,12.58,0,0,0,3.76-8.31,12,12,0,0,0-1.11-5.67,13.12,13.12,0,0,0-4.72-5.4l.18-.22a13.34,13.34,0,0,1,4.7,5.48,12.4,12.4,0,0,1,1.09,5.68A12.71,12.71,0,0,1,340.55,20.57Z"/><path class="cls-1" d="M338.22,21.88a12.65,12.65,0,0,0,5-7.17,11.78,11.78,0,0,0,0-5.75A12.33,12.33,0,0,0,339.7,3l.21-.19a12.55,12.55,0,0,1,3.52,6,11.9,11.9,0,0,1,0,5.75A12.7,12.7,0,0,1,338.22,21.88Z"/><path class="cls-1" d="M318.42,15.23A12.57,12.57,0,0,0,323.25,23a12.14,12.14,0,0,0,5.34,2.21,13.07,13.07,0,0,0,7.11-.94l.09.27a13.24,13.24,0,0,1-7.17.88,12.26,12.26,0,0,1-5.33-2.24A12.69,12.69,0,0,1,318.42,15.23Z"/><path class="cls-1" d="M318.59,12.89A12.6,12.6,0,0,0,321.91,21a11.86,11.86,0,0,0,4.85,3.09,12.38,12.38,0,0,0,6.91.2l.05.28a12.46,12.46,0,0,1-7-.27,12,12,0,0,1-4.83-3.11A12.71,12.71,0,0,1,318.59,12.89Z"/><path class="cls-1" d="M319.66,6.43a12.52,12.52,0,0,0-2.49,8.77,12.23,12.23,0,0,0,1.95,5.45,13.26,13.26,0,0,0,5.48,4.63l-.14.25A13.31,13.31,0,0,1,319,20.81a12.41,12.41,0,0,1-1.93-5.46A12.65,12.65,0,0,1,319.66,6.43Z"/><path class="cls-1" d="M321.61,4.8a12.65,12.65,0,0,0-3.77,7.91,11.87,11.87,0,0,0,1,5.67,12.33,12.33,0,0,0,4.5,5.25l-.18.22a12.46,12.46,0,0,1-4.47-5.33,12,12,0,0,1-1-5.67A12.71,12.71,0,0,1,321.61,4.8Z"/></g></g></svg>